<svg width="477" height="33" viewBox="0 0 477 33" fill="none" xmlns="http://www.w3.org/2000/svg">
<path d="M21 8.5H456.5" stroke="#18A0FB" stroke-width="2" stroke-linecap="round" stroke-linejoin="round" stroke-dasharray="10 10"/>
<circle cx="20" cy="8" r="8" fill="#18A0FB"/>
<circle cx="20" cy="8" r="4" fill="white"/>
<circle cx="20" cy="8" r="4" stroke="black"/>
<circle cx="457" cy="8" r="8" fill="#FF0000"/>
<circle cx="457" cy="8" r="3.75" fill="white" stroke="white" stroke-width="0.5"/>
<circle cx="116" cy="8" r="5.5" fill="white" stroke="#79797B"/>
<circle cx="195" cy="9" r="5.5" fill="white" stroke="#79797B"/>
<circle cx="278" cy="9" r="5.5" fill="white" stroke="#79797B"/>
<circle cx="371" cy="9" r="5.5" fill="white" stroke="#79797B"/>
<path d="M2.59766 30.1904C1.77083 30.1904 1.17025 29.9642 0.795898 29.5117C0.424805 29.056 0.239258 28.5026 0.239258 27.8516H1.15723C1.19629 28.304 1.28092 28.6328 1.41113 28.8379C1.639 29.2057 2.05078 29.3896 2.64648 29.3896C3.10872 29.3896 3.47982 29.266 3.75977 29.0186C4.03971 28.7712 4.17969 28.4521 4.17969 28.0615C4.17969 27.5798 4.03158 27.2428 3.73535 27.0508C3.44238 26.8587 3.03385 26.7627 2.50977 26.7627C2.45117 26.7627 2.39095 26.7643 2.3291 26.7676C2.27051 26.7676 2.21029 26.7692 2.14844 26.7725V25.9961C2.23958 26.0059 2.31608 26.0124 2.37793 26.0156C2.43978 26.0189 2.50651 26.0205 2.57812 26.0205C2.9069 26.0205 3.17708 25.9684 3.38867 25.8643C3.75977 25.682 3.94531 25.3564 3.94531 24.8877C3.94531 24.5394 3.82161 24.2708 3.57422 24.082C3.32682 23.8932 3.03874 23.7988 2.70996 23.7988C2.12402 23.7988 1.71875 23.9941 1.49414 24.3848C1.37044 24.5996 1.30046 24.9056 1.28418 25.3027H0.415039C0.415039 24.7819 0.519206 24.3392 0.727539 23.9746C1.08561 23.3236 1.71549 22.998 2.61719 22.998C3.33008 22.998 3.88184 23.1576 4.27246 23.4766C4.66309 23.7923 4.8584 24.2513 4.8584 24.8535C4.8584 25.2832 4.74284 25.6315 4.51172 25.8984C4.36849 26.0645 4.18294 26.1947 3.95508 26.2891C4.32292 26.39 4.60938 26.5853 4.81445 26.875C5.02279 27.1615 5.12695 27.513 5.12695 27.9297C5.12695 28.597 4.90723 29.1406 4.46777 29.5605C4.02832 29.9805 3.40495 30.1904 2.59766 30.1904ZM5.87891 30C5.91146 29.3978 6.03516 28.8737 6.25 28.4277C6.4681 27.9818 6.89128 27.5765 7.51953 27.2119L8.45703 26.6699C8.87695 26.4258 9.17155 26.2174 9.34082 26.0449C9.60775 25.7747 9.74121 25.4655 9.74121 25.1172C9.74121 24.7103 9.61914 24.388 9.375 24.1504C9.13086 23.9095 8.80534 23.7891 8.39844 23.7891C7.79622 23.7891 7.37956 24.0169 7.14844 24.4727C7.02474 24.7168 6.95638 25.0553 6.94336 25.4883H6.0498C6.05957 24.8796 6.17188 24.3831 6.38672 23.999C6.76758 23.3219 7.43978 22.9834 8.40332 22.9834C9.2041 22.9834 9.78841 23.1999 10.1562 23.6328C10.5273 24.0658 10.7129 24.5475 10.7129 25.0781C10.7129 25.638 10.516 26.1165 10.1221 26.5137C9.89421 26.7448 9.48568 27.0247 8.89648 27.3535L8.22754 27.7246C7.90853 27.9004 7.65788 28.068 7.47559 28.2275C7.15007 28.5107 6.94499 28.8249 6.86035 29.1699H10.6787V30H5.87891ZM16.7676 29.4092C17.1777 29.4092 17.5179 29.2383 17.7881 28.8965C18.0615 28.5514 18.1982 28.0371 18.1982 27.3535C18.1982 26.9368 18.138 26.5788 18.0176 26.2793C17.7897 25.7031 17.373 25.415 16.7676 25.415C16.1589 25.415 15.7422 25.7194 15.5176 26.3281C15.3971 26.6536 15.3369 27.0671 15.3369 27.5684C15.3369 27.972 15.3971 28.3154 15.5176 28.5986C15.7454 29.139 16.1621 29.4092 16.7676 29.4092ZM14.4922 24.7949H15.3467V25.4883C15.5225 25.2507 15.7145 25.0667 15.9229 24.9365C16.2191 24.7412 16.5674 24.6436 16.9678 24.6436C17.5602 24.6436 18.0632 24.8714 18.4766 25.3271C18.89 25.7796 19.0967 26.4274 19.0967 27.2705C19.0967 28.4098 18.7988 29.2236 18.2031 29.7119C17.8255 30.0212 17.3861 30.1758 16.8848 30.1758C16.4909 30.1758 16.1605 30.0895 15.8936 29.917C15.7373 29.8193 15.5632 29.6517 15.3711 29.4141V32.085H14.4922V24.7949ZM20.8008 28.6084C20.8008 28.8623 20.8936 29.0625 21.0791 29.209C21.2646 29.3555 21.4844 29.4287 21.7383 29.4287C22.0475 29.4287 22.347 29.3571 22.6367 29.2139C23.125 28.9762 23.3691 28.5872 23.3691 28.0469V27.3389C23.2617 27.4072 23.1234 27.4642 22.9541 27.5098C22.7848 27.5553 22.6188 27.5879 22.4561 27.6074L21.9238 27.6758C21.6048 27.7181 21.3656 27.7848 21.2061 27.876C20.9359 28.029 20.8008 28.2731 20.8008 28.6084ZM22.9297 26.8311C23.1315 26.805 23.2666 26.7204 23.335 26.5771C23.374 26.499 23.3936 26.3867 23.3936 26.2402C23.3936 25.9408 23.2861 25.7243 23.0713 25.5908C22.8597 25.4541 22.5553 25.3857 22.1582 25.3857C21.6992 25.3857 21.3737 25.5094 21.1816 25.7568C21.0742 25.8936 21.0042 26.097 20.9717 26.3672H20.1514C20.1676 25.7227 20.376 25.2751 20.7764 25.0244C21.18 24.7705 21.6471 24.6436 22.1777 24.6436C22.793 24.6436 23.2926 24.7607 23.6768 24.9951C24.0576 25.2295 24.248 25.5941 24.248 26.0889V29.1016C24.248 29.1927 24.266 29.266 24.3018 29.3213C24.3408 29.3766 24.4206 29.4043 24.541 29.4043C24.5801 29.4043 24.624 29.4027 24.6729 29.3994C24.7217 29.3929 24.7738 29.3848 24.8291 29.375V30.0244C24.6924 30.0635 24.5882 30.0879 24.5166 30.0977C24.445 30.1074 24.3473 30.1123 24.2236 30.1123C23.9209 30.1123 23.7012 30.0049 23.5645 29.79C23.4928 29.6761 23.4424 29.515 23.4131 29.3066C23.234 29.541 22.9769 29.7445 22.6416 29.917C22.3063 30.0895 21.9368 30.1758 21.5332 30.1758C21.0482 30.1758 20.651 30.0293 20.3418 29.7363C20.0358 29.4401 19.8828 29.0706 19.8828 28.6279C19.8828 28.1429 20.0342 27.7669 20.3369 27.5C20.6396 27.2331 21.0368 27.0687 21.5283 27.0068L22.9297 26.8311ZM25.7178 24.7705H26.5527V25.6738C26.6211 25.498 26.7887 25.2848 27.0557 25.0342C27.3226 24.7803 27.6302 24.6533 27.9785 24.6533C27.9948 24.6533 28.0225 24.6549 28.0615 24.6582C28.1006 24.6615 28.1673 24.668 28.2617 24.6777V25.6055C28.2096 25.5957 28.1608 25.5892 28.1152 25.5859C28.0729 25.5827 28.0257 25.5811 27.9736 25.5811C27.5309 25.5811 27.1908 25.7243 26.9531 26.0107C26.7155 26.2939 26.5967 26.6211 26.5967 26.9922V30H25.7178V24.7705ZM29.0039 22.8271H29.8486V26.9922L32.1045 24.7705H33.2275L31.2256 26.7285L33.3398 30H32.2168L30.5859 27.3633L29.8486 28.0371V30H29.0039V22.8271Z" fill="#79797B"/>
<path d="M85.9326 30V22.8418H86.8799V30H85.9326ZM90.3613 29.2139L90.4883 29.9902C90.2409 30.0423 90.0195 30.0684 89.8242 30.0684C89.5052 30.0684 89.2578 30.0179 89.082 29.917C88.9062 29.8161 88.7826 29.6842 88.7109 29.5215C88.6393 29.3555 88.6035 29.0088 88.6035 28.4814V25.498H87.959V24.8145H88.6035V23.5303L89.4775 23.0029V24.8145H90.3613V25.498H89.4775V28.5303C89.4775 28.7809 89.4922 28.9421 89.5215 29.0137C89.554 29.0853 89.6045 29.1423 89.6729 29.1846C89.7445 29.2269 89.8454 29.248 89.9756 29.248C90.0732 29.248 90.2018 29.2367 90.3613 29.2139ZM91.2061 30V22.8418H92.085V30H91.2061ZM96.8359 29.3604C96.5104 29.637 96.1963 29.8324 95.8936 29.9463C95.5941 30.0602 95.2718 30.1172 94.9268 30.1172C94.3571 30.1172 93.9193 29.9788 93.6133 29.7021C93.3073 29.4222 93.1543 29.0658 93.1543 28.6328C93.1543 28.3789 93.2113 28.1478 93.3252 27.9395C93.4424 27.7279 93.5938 27.5586 93.7793 27.4316C93.9681 27.3047 94.1797 27.2087 94.4141 27.1436C94.5866 27.098 94.847 27.054 95.1953 27.0117C95.9049 26.9271 96.4274 26.8262 96.7627 26.709C96.766 26.5885 96.7676 26.512 96.7676 26.4795C96.7676 26.1214 96.6846 25.8691 96.5186 25.7227C96.2939 25.5241 95.9603 25.4248 95.5176 25.4248C95.1042 25.4248 94.7982 25.498 94.5996 25.6445C94.4043 25.7878 94.2594 26.0433 94.165 26.4111L93.3057 26.2939C93.3838 25.9261 93.5124 25.6299 93.6914 25.4053C93.8704 25.1774 94.1292 25.0033 94.4678 24.8828C94.8063 24.7591 95.1986 24.6973 95.6445 24.6973C96.0872 24.6973 96.4469 24.7493 96.7236 24.8535C97.0003 24.9577 97.2038 25.0895 97.334 25.249C97.4642 25.4053 97.5553 25.6038 97.6074 25.8447C97.6367 25.9945 97.6514 26.2646 97.6514 26.6553V27.8271C97.6514 28.6442 97.6693 29.1618 97.7051 29.3799C97.7441 29.5947 97.819 29.8014 97.9297 30H97.0117C96.9206 29.8177 96.862 29.6045 96.8359 29.3604ZM96.7627 27.3975C96.4437 27.5277 95.9652 27.6383 95.3271 27.7295C94.9658 27.7816 94.7103 27.8402 94.5605 27.9053C94.4108 27.9704 94.2952 28.0664 94.2139 28.1934C94.1325 28.3171 94.0918 28.4554 94.0918 28.6084C94.0918 28.8428 94.1797 29.0381 94.3555 29.1943C94.5345 29.3506 94.7949 29.4287 95.1367 29.4287C95.4753 29.4287 95.7764 29.3555 96.04 29.209C96.3037 29.0592 96.4974 28.8558 96.6211 28.5986C96.7155 28.4001 96.7627 28.1071 96.7627 27.7197V27.3975ZM99.0234 23.8525V22.8418H99.9023V23.8525H99.0234ZM99.0234 30V24.8145H99.9023V30H99.0234ZM104.629 29.3604C104.303 29.637 103.989 29.8324 103.687 29.9463C103.387 30.0602 103.065 30.1172 102.72 30.1172C102.15 30.1172 101.712 29.9788 101.406 29.7021C101.1 29.4222 100.947 29.0658 100.947 28.6328C100.947 28.3789 101.004 28.1478 101.118 27.9395C101.235 27.7279 101.387 27.5586 101.572 27.4316C101.761 27.3047 101.973 27.2087 102.207 27.1436C102.38 27.098 102.64 27.054 102.988 27.0117C103.698 26.9271 104.22 26.8262 104.556 26.709C104.559 26.5885 104.561 26.512 104.561 26.4795C104.561 26.1214 104.478 25.8691 104.312 25.7227C104.087 25.5241 103.753 25.4248 103.311 25.4248C102.897 25.4248 102.591 25.498 102.393 25.6445C102.197 25.7878 102.052 26.0433 101.958 26.4111L101.099 26.2939C101.177 25.9261 101.305 25.6299 101.484 25.4053C101.663 25.1774 101.922 25.0033 102.261 24.8828C102.599 24.7591 102.992 24.6973 103.438 24.6973C103.88 24.6973 104.24 24.7493 104.517 24.8535C104.793 24.9577 104.997 25.0895 105.127 25.249C105.257 25.4053 105.348 25.6038 105.4 25.8447C105.43 25.9945 105.444 26.2646 105.444 26.6553V27.8271C105.444 28.6442 105.462 29.1618 105.498 29.3799C105.537 29.5947 105.612 29.8014 105.723 30H104.805C104.714 29.8177 104.655 29.6045 104.629 29.3604ZM104.556 27.3975C104.237 27.5277 103.758 27.6383 103.12 27.7295C102.759 27.7816 102.503 27.8402 102.354 27.9053C102.204 27.9704 102.088 28.0664 102.007 28.1934C101.925 28.3171 101.885 28.4554 101.885 28.6084C101.885 28.8428 101.973 29.0381 102.148 29.1943C102.327 29.3506 102.588 29.4287 102.93 29.4287C103.268 29.4287 103.569 29.3555 103.833 29.209C104.097 29.0592 104.29 28.8558 104.414 28.5986C104.508 28.4001 104.556 28.1071 104.556 27.7197V27.3975ZM106.812 30V24.8145H107.603V25.5518C107.983 24.9821 108.534 24.6973 109.253 24.6973C109.565 24.6973 109.852 24.7542 110.112 24.8682C110.376 24.9788 110.573 25.1253 110.703 25.3076C110.833 25.4899 110.924 25.7064 110.977 25.957C111.009 26.1198 111.025 26.4046 111.025 26.8115V30H110.146V26.8457C110.146 26.4876 110.112 26.2207 110.044 26.0449C109.976 25.8659 109.854 25.7243 109.678 25.6201C109.505 25.5127 109.302 25.459 109.067 25.459C108.693 25.459 108.369 25.5778 108.096 25.8154C107.826 26.0531 107.69 26.5039 107.69 27.168V30H106.812ZM117.319 30L114.546 22.8418H115.571L117.432 28.042C117.581 28.4587 117.707 28.8493 117.808 29.2139C117.918 28.8232 118.047 28.4326 118.193 28.042L120.127 22.8418H121.094L118.291 30H117.319ZM121.65 23.8525V22.8418H122.529V23.8525H121.65ZM121.65 30V24.8145H122.529V30H121.65ZM123.853 30V22.8418H124.731V30H123.853ZM126.079 30V22.8418H126.958V30H126.079ZM131.709 29.3604C131.383 29.637 131.069 29.8324 130.767 29.9463C130.467 30.0602 130.145 30.1172 129.8 30.1172C129.23 30.1172 128.792 29.9788 128.486 29.7021C128.18 29.4222 128.027 29.0658 128.027 28.6328C128.027 28.3789 128.084 28.1478 128.198 27.9395C128.315 27.7279 128.467 27.5586 128.652 27.4316C128.841 27.3047 129.053 27.2087 129.287 27.1436C129.46 27.098 129.72 27.054 130.068 27.0117C130.778 26.9271 131.3 26.8262 131.636 26.709C131.639 26.5885 131.641 26.512 131.641 26.4795C131.641 26.1214 131.558 25.8691 131.392 25.7227C131.167 25.5241 130.833 25.4248 130.391 25.4248C129.977 25.4248 129.671 25.498 129.473 25.6445C129.277 25.7878 129.132 26.0433 129.038 26.4111L128.179 26.2939C128.257 25.9261 128.385 25.6299 128.564 25.4053C128.743 25.1774 129.002 25.0033 129.341 24.8828C129.679 24.7591 130.072 24.6973 130.518 24.6973C130.96 24.6973 131.32 24.7493 131.597 24.8535C131.873 24.9577 132.077 25.0895 132.207 25.249C132.337 25.4053 132.428 25.6038 132.48 25.8447C132.51 25.9945 132.524 26.2646 132.524 26.6553V27.8271C132.524 28.6442 132.542 29.1618 132.578 29.3799C132.617 29.5947 132.692 29.8014 132.803 30H131.885C131.794 29.8177 131.735 29.6045 131.709 29.3604ZM131.636 27.3975C131.317 27.5277 130.838 27.6383 130.2 27.7295C129.839 27.7816 129.583 27.8402 129.434 27.9053C129.284 27.9704 129.168 28.0664 129.087 28.1934C129.006 28.3171 128.965 28.4554 128.965 28.6084C128.965 28.8428 129.053 29.0381 129.229 29.1943C129.408 29.3506 129.668 29.4287 130.01 29.4287C130.348 29.4287 130.649 29.3555 130.913 29.209C131.177 29.0592 131.37 28.8558 131.494 28.5986C131.589 28.4001 131.636 28.1071 131.636 27.7197V27.3975ZM133.73 30.4297L134.585 30.5566C134.621 30.8203 134.72 31.0124 134.883 31.1328C135.101 31.2956 135.399 31.377 135.776 31.377C136.183 31.377 136.497 31.2956 136.719 31.1328C136.94 30.9701 137.09 30.7422 137.168 30.4492C137.214 30.2702 137.235 29.8942 137.231 29.3213C136.847 29.7738 136.369 30 135.796 30C135.083 30 134.531 29.7428 134.141 29.2285C133.75 28.7142 133.555 28.0973 133.555 27.3779C133.555 26.8831 133.644 26.4274 133.823 26.0107C134.002 25.5908 134.261 25.2669 134.6 25.0391C134.941 24.8112 135.342 24.6973 135.801 24.6973C136.413 24.6973 136.917 24.9447 137.314 25.4395V24.8145H138.125V29.2969C138.125 30.1042 138.042 30.6755 137.876 31.0107C137.713 31.3493 137.453 31.6162 137.095 31.8115C136.74 32.0068 136.302 32.1045 135.781 32.1045C135.163 32.1045 134.663 31.9645 134.282 31.6846C133.901 31.4079 133.717 30.9896 133.73 30.4297ZM134.458 27.3145C134.458 27.9948 134.593 28.4912 134.863 28.8037C135.133 29.1162 135.472 29.2725 135.879 29.2725C136.283 29.2725 136.621 29.1178 136.895 28.8086C137.168 28.4961 137.305 28.0078 137.305 27.3438C137.305 26.709 137.163 26.2305 136.88 25.9082C136.6 25.5859 136.261 25.4248 135.864 25.4248C135.474 25.4248 135.142 25.5843 134.868 25.9033C134.595 26.2191 134.458 26.6895 134.458 27.3145ZM143.008 28.3301L143.916 28.4424C143.773 28.973 143.507 29.3848 143.12 29.6777C142.733 29.9707 142.238 30.1172 141.636 30.1172C140.877 30.1172 140.275 29.8844 139.829 29.4189C139.386 28.9502 139.165 28.2943 139.165 27.4512C139.165 26.5788 139.39 25.9017 139.839 25.4199C140.288 24.9382 140.871 24.6973 141.587 24.6973C142.28 24.6973 142.847 24.9333 143.286 25.4053C143.726 25.8773 143.945 26.5413 143.945 27.3975C143.945 27.4495 143.944 27.5277 143.94 27.6318H140.073C140.106 28.2015 140.267 28.6377 140.557 28.9404C140.846 29.2432 141.208 29.3945 141.641 29.3945C141.963 29.3945 142.238 29.3099 142.466 29.1406C142.694 28.9714 142.874 28.7012 143.008 28.3301ZM140.122 26.9092H143.018C142.979 26.473 142.868 26.1458 142.686 25.9277C142.406 25.5892 142.043 25.4199 141.597 25.4199C141.193 25.4199 140.853 25.555 140.576 25.8252C140.303 26.0954 140.151 26.4567 140.122 26.9092Z" fill="#79797B"/>
<path d="M176.771 30V22.8418H179.472C179.947 22.8418 180.31 22.8646 180.561 22.9102C180.912 22.9688 181.207 23.0811 181.444 23.2471C181.682 23.4098 181.872 23.6393 182.016 23.9355C182.162 24.2318 182.235 24.5573 182.235 24.9121C182.235 25.5208 182.042 26.0368 181.654 26.46C181.267 26.8799 180.567 27.0898 179.555 27.0898H177.719V30H176.771ZM177.719 26.2451H179.569C180.181 26.2451 180.616 26.1312 180.873 25.9033C181.13 25.6755 181.259 25.3548 181.259 24.9414C181.259 24.6419 181.182 24.3864 181.029 24.1748C180.88 23.96 180.681 23.8184 180.434 23.75C180.274 23.7077 179.979 23.6865 179.55 23.6865H177.719V26.2451ZM186.713 29.3604C186.387 29.637 186.073 29.8324 185.771 29.9463C185.471 30.0602 185.149 30.1172 184.804 30.1172C184.234 30.1172 183.796 29.9788 183.49 29.7021C183.184 29.4222 183.031 29.0658 183.031 28.6328C183.031 28.3789 183.088 28.1478 183.202 27.9395C183.319 27.7279 183.471 27.5586 183.656 27.4316C183.845 27.3047 184.057 27.2087 184.291 27.1436C184.464 27.098 184.724 27.054 185.072 27.0117C185.782 26.9271 186.304 26.8262 186.64 26.709C186.643 26.5885 186.645 26.512 186.645 26.4795C186.645 26.1214 186.562 25.8691 186.396 25.7227C186.171 25.5241 185.837 25.4248 185.395 25.4248C184.981 25.4248 184.675 25.498 184.477 25.6445C184.281 25.7878 184.136 26.0433 184.042 26.4111L183.183 26.2939C183.261 25.9261 183.389 25.6299 183.568 25.4053C183.747 25.1774 184.006 25.0033 184.345 24.8828C184.683 24.7591 185.076 24.6973 185.521 24.6973C185.964 24.6973 186.324 24.7493 186.601 24.8535C186.877 24.9577 187.081 25.0895 187.211 25.249C187.341 25.4053 187.432 25.6038 187.484 25.8447C187.514 25.9945 187.528 26.2646 187.528 26.6553V27.8271C187.528 28.6442 187.546 29.1618 187.582 29.3799C187.621 29.5947 187.696 29.8014 187.807 30H186.889C186.798 29.8177 186.739 29.6045 186.713 29.3604ZM186.64 27.3975C186.321 27.5277 185.842 27.6383 185.204 27.7295C184.843 27.7816 184.587 27.8402 184.438 27.9053C184.288 27.9704 184.172 28.0664 184.091 28.1934C184.009 28.3171 183.969 28.4554 183.969 28.6084C183.969 28.8428 184.057 29.0381 184.232 29.1943C184.411 29.3506 184.672 29.4287 185.014 29.4287C185.352 29.4287 185.653 29.3555 185.917 29.209C186.181 29.0592 186.374 28.8558 186.498 28.5986C186.592 28.4001 186.64 28.1071 186.64 27.7197V27.3975ZM188.886 30V24.8145H189.677V25.6006C189.879 25.2327 190.064 24.9902 190.233 24.873C190.406 24.7559 190.595 24.6973 190.8 24.6973C191.096 24.6973 191.397 24.7917 191.703 24.9805L191.4 25.7959C191.186 25.6689 190.971 25.6055 190.756 25.6055C190.564 25.6055 190.391 25.6641 190.238 25.7812C190.085 25.8952 189.976 26.0547 189.911 26.2598C189.813 26.5723 189.765 26.9141 189.765 27.2852V30H188.886ZM192.23 30V22.8418H193.109V26.9238L195.189 24.8145H196.327L194.345 26.7383L196.527 30H195.443L193.729 27.3486L193.109 27.9443V30H192.23ZM202.167 30L199.394 22.8418H200.419L202.279 28.042C202.429 28.4587 202.554 28.8493 202.655 29.2139C202.766 28.8232 202.895 28.4326 203.041 28.042L204.975 22.8418H205.941L203.139 30H202.167ZM206.498 23.8525V22.8418H207.377V23.8525H206.498ZM206.498 30V24.8145H207.377V30H206.498ZM212.27 28.3301L213.178 28.4424C213.035 28.973 212.769 29.3848 212.382 29.6777C211.994 29.9707 211.5 30.1172 210.897 30.1172C210.139 30.1172 209.537 29.8844 209.091 29.4189C208.648 28.9502 208.427 28.2943 208.427 27.4512C208.427 26.5788 208.651 25.9017 209.101 25.4199C209.55 24.9382 210.132 24.6973 210.849 24.6973C211.542 24.6973 212.108 24.9333 212.548 25.4053C212.987 25.8773 213.207 26.5413 213.207 27.3975C213.207 27.4495 213.205 27.5277 213.202 27.6318H209.335C209.368 28.2015 209.529 28.6377 209.818 28.9404C210.108 29.2432 210.469 29.3945 210.902 29.3945C211.225 29.3945 211.5 29.3099 211.728 29.1406C211.955 28.9714 212.136 28.7012 212.27 28.3301ZM209.384 26.9092H212.279C212.24 26.473 212.13 26.1458 211.947 25.9277C211.667 25.5892 211.304 25.4199 210.858 25.4199C210.455 25.4199 210.115 25.555 209.838 25.8252C209.564 26.0954 209.413 26.4567 209.384 26.9092ZM215.243 30L213.656 24.8145H214.564L215.39 27.8076L215.697 28.9209C215.71 28.8656 215.8 28.5091 215.966 27.8516L216.791 24.8145H217.694L218.471 27.8223L218.729 28.8135L219.027 27.8125L219.916 24.8145H220.771L219.149 30H218.236L217.411 26.8945L217.211 26.0107L216.161 30H215.243Z" fill="#79797B"/>
<path d="M258.762 30V22.8418H259.733L263.493 28.4619V22.8418H264.401V30H263.43L259.67 24.375V30H258.762ZM269.27 29.3604C268.944 29.637 268.63 29.8324 268.327 29.9463C268.028 30.0602 267.705 30.1172 267.36 30.1172C266.791 30.1172 266.353 29.9788 266.047 29.7021C265.741 29.4222 265.588 29.0658 265.588 28.6328C265.588 28.3789 265.645 28.1478 265.759 27.9395C265.876 27.7279 266.027 27.5586 266.213 27.4316C266.402 27.3047 266.613 27.2087 266.848 27.1436C267.02 27.098 267.281 27.054 267.629 27.0117C268.339 26.9271 268.861 26.8262 269.196 26.709C269.2 26.5885 269.201 26.512 269.201 26.4795C269.201 26.1214 269.118 25.8691 268.952 25.7227C268.728 25.5241 268.394 25.4248 267.951 25.4248C267.538 25.4248 267.232 25.498 267.033 25.6445C266.838 25.7878 266.693 26.0433 266.599 26.4111L265.739 26.2939C265.817 25.9261 265.946 25.6299 266.125 25.4053C266.304 25.1774 266.563 25.0033 266.901 24.8828C267.24 24.7591 267.632 24.6973 268.078 24.6973C268.521 24.6973 268.881 24.7493 269.157 24.8535C269.434 24.9577 269.637 25.0895 269.768 25.249C269.898 25.4053 269.989 25.6038 270.041 25.8447C270.07 25.9945 270.085 26.2646 270.085 26.6553V27.8271C270.085 28.6442 270.103 29.1618 270.139 29.3799C270.178 29.5947 270.253 29.8014 270.363 30H269.445C269.354 29.8177 269.296 29.6045 269.27 29.3604ZM269.196 27.3975C268.877 27.5277 268.399 27.6383 267.761 27.7295C267.399 27.7816 267.144 27.8402 266.994 27.9053C266.844 27.9704 266.729 28.0664 266.647 28.1934C266.566 28.3171 266.525 28.4554 266.525 28.6084C266.525 28.8428 266.613 29.0381 266.789 29.1943C266.968 29.3506 267.229 29.4287 267.57 29.4287C267.909 29.4287 268.21 29.3555 268.474 29.209C268.737 29.0592 268.931 28.8558 269.055 28.5986C269.149 28.4001 269.196 28.1071 269.196 27.7197V27.3975ZM270.988 30V29.2871L274.289 25.498C273.915 25.5176 273.584 25.5273 273.298 25.5273H271.184V24.8145H275.422V25.3955L272.614 28.6865L272.072 29.2871C272.466 29.2578 272.836 29.2432 273.181 29.2432H275.578V30H270.988ZM279.338 30V22.8418H280.31L284.069 28.4619V22.8418H284.978V30H284.006L280.246 24.375V30H279.338ZM289.846 29.3604C289.52 29.637 289.206 29.8324 288.903 29.9463C288.604 30.0602 288.282 30.1172 287.937 30.1172C287.367 30.1172 286.929 29.9788 286.623 29.7021C286.317 29.4222 286.164 29.0658 286.164 28.6328C286.164 28.3789 286.221 28.1478 286.335 27.9395C286.452 27.7279 286.604 27.5586 286.789 27.4316C286.978 27.3047 287.189 27.2087 287.424 27.1436C287.596 27.098 287.857 27.054 288.205 27.0117C288.915 26.9271 289.437 26.8262 289.772 26.709C289.776 26.5885 289.777 26.512 289.777 26.4795C289.777 26.1214 289.694 25.8691 289.528 25.7227C289.304 25.5241 288.97 25.4248 288.527 25.4248C288.114 25.4248 287.808 25.498 287.609 25.6445C287.414 25.7878 287.269 26.0433 287.175 26.4111L286.315 26.2939C286.394 25.9261 286.522 25.6299 286.701 25.4053C286.88 25.1774 287.139 25.0033 287.478 24.8828C287.816 24.7591 288.208 24.6973 288.654 24.6973C289.097 24.6973 289.457 24.7493 289.733 24.8535C290.01 24.9577 290.214 25.0895 290.344 25.249C290.474 25.4053 290.565 25.6038 290.617 25.8447C290.646 25.9945 290.661 26.2646 290.661 26.6553V27.8271C290.661 28.6442 290.679 29.1618 290.715 29.3799C290.754 29.5947 290.829 29.8014 290.939 30H290.021C289.93 29.8177 289.872 29.6045 289.846 29.3604ZM289.772 27.3975C289.453 27.5277 288.975 27.6383 288.337 27.7295C287.976 27.7816 287.72 27.8402 287.57 27.9053C287.421 27.9704 287.305 28.0664 287.224 28.1934C287.142 28.3171 287.102 28.4554 287.102 28.6084C287.102 28.8428 287.189 29.0381 287.365 29.1943C287.544 29.3506 287.805 29.4287 288.146 29.4287C288.485 29.4287 288.786 29.3555 289.05 29.209C289.313 29.0592 289.507 28.8558 289.631 28.5986C289.725 28.4001 289.772 28.1071 289.772 27.7197V27.3975ZM291.564 30V29.2871L294.865 25.498C294.491 25.5176 294.16 25.5273 293.874 25.5273H291.76V24.8145H295.998V25.3955L293.19 28.6865L292.648 29.2871C293.042 29.2578 293.412 29.2432 293.757 29.2432H296.154V30H291.564Z" fill="#79797B"/>
<path d="M355.791 30V22.8418H360.967V23.6865H356.738V25.8789H360.698V26.7188H356.738V29.1553H361.133V30H355.791ZM362.329 30V24.8145H363.115V25.542C363.278 25.2881 363.494 25.0846 363.765 24.9316C364.035 24.7754 364.342 24.6973 364.688 24.6973C365.072 24.6973 365.386 24.777 365.63 24.9365C365.877 25.096 366.051 25.319 366.152 25.6055C366.562 25 367.096 24.6973 367.754 24.6973C368.268 24.6973 368.664 24.8405 368.94 25.127C369.217 25.4102 369.355 25.848 369.355 26.4404V30H368.481V26.7334C368.481 26.3818 368.452 26.1296 368.394 25.9766C368.338 25.8203 368.236 25.695 368.086 25.6006C367.936 25.5062 367.76 25.459 367.559 25.459C367.194 25.459 366.891 25.5811 366.65 25.8252C366.41 26.0661 366.289 26.4535 366.289 26.9873V30H365.41V26.6309C365.41 26.2402 365.339 25.9473 365.195 25.752C365.052 25.5566 364.818 25.459 364.492 25.459C364.245 25.459 364.015 25.5241 363.804 25.6543C363.595 25.7845 363.444 25.9749 363.35 26.2256C363.255 26.4762 363.208 26.8376 363.208 27.3096V30H362.329ZM370.659 31.9873V24.8145H371.46V25.4883C371.649 25.2246 371.862 25.0277 372.1 24.8975C372.337 24.764 372.625 24.6973 372.964 24.6973C373.407 24.6973 373.797 24.8112 374.136 25.0391C374.474 25.2669 374.73 25.5892 374.902 26.0059C375.075 26.4193 375.161 26.8734 375.161 27.3682C375.161 27.8988 375.065 28.3773 374.873 28.8037C374.684 29.2269 374.408 29.5524 374.043 29.7803C373.682 30.0049 373.301 30.1172 372.9 30.1172C372.607 30.1172 372.344 30.0553 372.109 29.9316C371.878 29.8079 371.688 29.6517 371.538 29.4629V31.9873H370.659ZM371.455 27.4365C371.455 28.1038 371.59 28.597 371.86 28.916C372.131 29.235 372.458 29.3945 372.842 29.3945C373.232 29.3945 373.566 29.2301 373.843 28.9014C374.123 28.5693 374.263 28.0566 374.263 27.3633C374.263 26.7025 374.126 26.2077 373.853 25.8789C373.582 25.5501 373.258 25.3857 372.881 25.3857C372.507 25.3857 372.174 25.5615 371.885 25.9131C371.598 26.2614 371.455 26.7692 371.455 27.4365ZM376.23 23.8525V22.8418H377.109V23.8525H376.23ZM376.23 30V24.8145H377.109V30H376.23ZM378.442 30V24.8145H379.233V25.6006C379.435 25.2327 379.621 24.9902 379.79 24.873C379.963 24.7559 380.151 24.6973 380.356 24.6973C380.653 24.6973 380.954 24.7917 381.26 24.9805L380.957 25.7959C380.742 25.6689 380.527 25.6055 380.312 25.6055C380.12 25.6055 379.948 25.6641 379.795 25.7812C379.642 25.8952 379.533 26.0547 379.468 26.2598C379.37 26.5723 379.321 26.9141 379.321 27.2852V30H378.442ZM385.332 28.3301L386.24 28.4424C386.097 28.973 385.832 29.3848 385.444 29.6777C385.057 29.9707 384.562 30.1172 383.96 30.1172C383.201 30.1172 382.599 29.8844 382.153 29.4189C381.711 28.9502 381.489 28.2943 381.489 27.4512C381.489 26.5788 381.714 25.9017 382.163 25.4199C382.612 24.9382 383.195 24.6973 383.911 24.6973C384.604 24.6973 385.171 24.9333 385.61 25.4053C386.05 25.8773 386.27 26.5413 386.27 27.3975C386.27 27.4495 386.268 27.5277 386.265 27.6318H382.397C382.43 28.2015 382.591 28.6377 382.881 28.9404C383.171 29.2432 383.532 29.3945 383.965 29.3945C384.287 29.3945 384.562 29.3099 384.79 29.1406C385.018 28.9714 385.199 28.7012 385.332 28.3301ZM382.446 26.9092H385.342C385.303 26.473 385.192 26.1458 385.01 25.9277C384.73 25.5892 384.367 25.4199 383.921 25.4199C383.517 25.4199 383.177 25.555 382.9 25.8252C382.627 26.0954 382.476 26.4567 382.446 26.9092Z" fill="#79797B"/>
<path d="M436.985 30L439.734 22.8418H440.755L443.685 30H442.605L441.771 27.832H438.777L437.991 30H436.985ZM439.051 27.0605H441.478L440.73 25.0781C440.503 24.4759 440.333 23.9811 440.223 23.5938C440.132 24.0527 440.003 24.5085 439.837 24.9609L439.051 27.0605ZM444.329 30V24.8145H445.12V25.5518C445.501 24.9821 446.051 24.6973 446.771 24.6973C447.083 24.6973 447.369 24.7542 447.63 24.8682C447.894 24.9788 448.09 25.1253 448.221 25.3076C448.351 25.4899 448.442 25.7064 448.494 25.957C448.527 26.1198 448.543 26.4046 448.543 26.8115V30H447.664V26.8457C447.664 26.4876 447.63 26.2207 447.562 26.0449C447.493 25.8659 447.371 25.7243 447.195 25.6201C447.023 25.5127 446.819 25.459 446.585 25.459C446.211 25.459 445.887 25.5778 445.613 25.8154C445.343 26.0531 445.208 26.5039 445.208 27.168V30H444.329ZM449.9 30V22.8418H450.779V26.9238L452.859 24.8145H453.997L452.015 26.7383L454.197 30H453.113L451.399 27.3486L450.779 27.9443V30H449.9ZM458.279 29.3604C457.954 29.637 457.64 29.8324 457.337 29.9463C457.037 30.0602 456.715 30.1172 456.37 30.1172C455.8 30.1172 455.363 29.9788 455.057 29.7021C454.751 29.4222 454.598 29.0658 454.598 28.6328C454.598 28.3789 454.655 28.1478 454.769 27.9395C454.886 27.7279 455.037 27.5586 455.223 27.4316C455.411 27.3047 455.623 27.2087 455.857 27.1436C456.03 27.098 456.29 27.054 456.639 27.0117C457.348 26.9271 457.871 26.8262 458.206 26.709C458.209 26.5885 458.211 26.512 458.211 26.4795C458.211 26.1214 458.128 25.8691 457.962 25.7227C457.737 25.5241 457.404 25.4248 456.961 25.4248C456.548 25.4248 456.242 25.498 456.043 25.6445C455.848 25.7878 455.703 26.0433 455.608 26.4111L454.749 26.2939C454.827 25.9261 454.956 25.6299 455.135 25.4053C455.314 25.1774 455.573 25.0033 455.911 24.8828C456.25 24.7591 456.642 24.6973 457.088 24.6973C457.531 24.6973 457.89 24.7493 458.167 24.8535C458.444 24.9577 458.647 25.0895 458.777 25.249C458.908 25.4053 458.999 25.6038 459.051 25.8447C459.08 25.9945 459.095 26.2646 459.095 26.6553V27.8271C459.095 28.6442 459.113 29.1618 459.148 29.3799C459.188 29.5947 459.262 29.8014 459.373 30H458.455C458.364 29.8177 458.305 29.6045 458.279 29.3604ZM458.206 27.3975C457.887 27.5277 457.409 27.6383 456.771 27.7295C456.409 27.7816 456.154 27.8402 456.004 27.9053C455.854 27.9704 455.739 28.0664 455.657 28.1934C455.576 28.3171 455.535 28.4554 455.535 28.6084C455.535 28.8428 455.623 29.0381 455.799 29.1943C455.978 29.3506 456.238 29.4287 456.58 29.4287C456.919 29.4287 457.22 29.3555 457.483 29.209C457.747 29.0592 457.941 28.8558 458.064 28.5986C458.159 28.4001 458.206 28.1071 458.206 27.7197V27.3975ZM461.419 30L459.832 24.8145H460.74L461.565 27.8076L461.873 28.9209C461.886 28.8656 461.976 28.5091 462.142 27.8516L462.967 24.8145H463.87L464.646 27.8223L464.905 28.8135L465.203 27.8125L466.092 24.8145H466.946L465.325 30H464.412L463.587 26.8945L463.387 26.0107L462.337 30H461.419ZM471.072 29.3604C470.747 29.637 470.433 29.8324 470.13 29.9463C469.83 30.0602 469.508 30.1172 469.163 30.1172C468.593 30.1172 468.156 29.9788 467.85 29.7021C467.544 29.4222 467.391 29.0658 467.391 28.6328C467.391 28.3789 467.448 28.1478 467.562 27.9395C467.679 27.7279 467.83 27.5586 468.016 27.4316C468.204 27.3047 468.416 27.2087 468.65 27.1436C468.823 27.098 469.083 27.054 469.432 27.0117C470.141 26.9271 470.664 26.8262 470.999 26.709C471.002 26.5885 471.004 26.512 471.004 26.4795C471.004 26.1214 470.921 25.8691 470.755 25.7227C470.53 25.5241 470.197 25.4248 469.754 25.4248C469.34 25.4248 469.035 25.498 468.836 25.6445C468.641 25.7878 468.496 26.0433 468.401 26.4111L467.542 26.2939C467.62 25.9261 467.749 25.6299 467.928 25.4053C468.107 25.1774 468.366 25.0033 468.704 24.8828C469.043 24.7591 469.435 24.6973 469.881 24.6973C470.324 24.6973 470.683 24.7493 470.96 24.8535C471.237 24.9577 471.44 25.0895 471.57 25.249C471.701 25.4053 471.792 25.6038 471.844 25.8447C471.873 25.9945 471.888 26.2646 471.888 26.6553V27.8271C471.888 28.6442 471.906 29.1618 471.941 29.3799C471.98 29.5947 472.055 29.8014 472.166 30H471.248C471.157 29.8177 471.098 29.6045 471.072 29.3604ZM470.999 27.3975C470.68 27.5277 470.201 27.6383 469.563 27.7295C469.202 27.7816 468.947 27.8402 468.797 27.9053C468.647 27.9704 468.532 28.0664 468.45 28.1934C468.369 28.3171 468.328 28.4554 468.328 28.6084C468.328 28.8428 468.416 29.0381 468.592 29.1943C468.771 29.3506 469.031 29.4287 469.373 29.4287C469.712 29.4287 470.013 29.3555 470.276 29.209C470.54 29.0592 470.734 28.8558 470.857 28.5986C470.952 28.4001 470.999 28.1071 470.999 27.7197V27.3975Z" fill="#79797B"/>
</svg>
