<svg viewBox="0 0 55 71" fill="none" xmlns="http://www.w3.org/2000/svg">
	<path fill="#18A0FB" d="M27.3 0C12.2395 0 0 12.2395 0 27.3C0 36.491 5.3235 44.1805 11.5115 49.5495C13.468 51.233 16.8805 53.9175 19.929 57.876C23.296 62.2895 26.3445 67.0215 27.3 70.2065C28.2555 67.0215 31.304 62.2895 34.671 57.876C37.7195 53.9175 41.132 51.233 43.0885 49.5495C49.2765 44.1805 54.6 36.491 54.6 27.3C54.6 12.2395 42.3605 0 27.3 0Z" />
	<path fill="#38EF52" fillRule="evenodd" clipRule="evenodd" d="M40.8008 26.3999C40.8008 29.9803 39.3785 33.4141 36.8467 35.9458C34.315 38.4776 30.8812 39.8999 27.3008 39.8999C23.7204 39.8999 20.2866 38.4776 17.7548 35.9458C15.2231 33.4141 13.8008 29.9803 13.8008 26.3999C13.8008 22.8195 15.2231 19.3857 17.7548 16.854C20.2866 14.3222 23.7204 12.8999 27.3008 12.8999C30.8812 12.8999 34.315 14.3222 36.8467 16.854C39.3785 19.3857 40.8008 22.8195 40.8008 26.3999ZM34.1014 21.2868C33.9809 21.1667 33.8373 21.0721 33.6794 21.0087C33.5215 20.9453 33.3524 20.9144 33.1823 20.9179C33.0121 20.9214 32.8444 20.9591 32.6892 21.0289C32.534 21.0986 32.3945 21.199 32.2789 21.3239L26.4182 28.7911L22.8863 25.2575C22.6464 25.0339 22.329 24.9122 22.0011 24.918C21.6733 24.9238 21.3604 25.0566 21.1285 25.2885C20.8967 25.5204 20.7638 25.8332 20.758 26.1611C20.7523 26.489 20.874 26.8063 21.0975 27.0462L25.5627 31.513C25.6829 31.6331 25.8262 31.7277 25.9838 31.7912C26.1415 31.8547 26.3103 31.8858 26.4802 31.8827C26.6502 31.8795 26.8177 31.8422 26.9729 31.7729C27.1281 31.7036 27.2677 31.6037 27.3835 31.4793L34.12 23.0587C34.3496 22.8199 34.4765 22.5006 34.4733 22.1693C34.4702 21.838 34.3373 21.5211 34.1031 21.2868H34.1014Z" />
</svg>
