<?xml version="1.0" encoding="UTF-8" standalone="no"?>
<svg
   xmlns:dc="http://purl.org/dc/elements/1.1/"
   xmlns:cc="http://creativecommons.org/ns#"
   xmlns:rdf="http://www.w3.org/1999/02/22-rdf-syntax-ns#"
   xmlns:svg="http://www.w3.org/2000/svg"
   xmlns="http://www.w3.org/2000/svg"
   style="fill:none"
   id="svg25"
   version="1.1"
   viewBox="0 0 1000 1000"
   height="1000"
   width="1000">
  <metadata
     id="metadata29">
    <rdf:RDF>
      <cc:Work
         rdf:about="">
        <dc:format>image/svg+xml</dc:format>
        <dc:type
           rdf:resource="http://purl.org/dc/dcmitype/StillImage" />
        <dc:title></dc:title>
      </cc:Work>
    </rdf:RDF>
  </metadata>
  <g
     id="g47">
    <path
       style="fill:#79797b;stroke-width:54.3080368"
       id="path2"
       d="m 947.17059,472.16854 h -43.26412 l 21.20735,-36.7272 c 7.68383,-13.31116 3.12383,-30.33526 -10.18735,-38.01869 -13.31676,-7.68923 -30.33853,-3.12657 -38.02235,10.18617 l -37.27353,64.55972 H 567.19182 l 192.64436,-192.64682 72.00441,19.29302 c 2.41412,0.64759 4.83941,0.9574 7.22559,0.9574 12.28853,0 23.53764,-8.20119 26.86823,-20.63464 3.97324,-14.84753 -4.83382,-30.11095 -19.68176,-34.08883 l -40.96736,-10.97679 27.96912,-27.96604 c 10.86912,-10.86753 10.86912,-28.49066 0,-39.3603 -10.86912,-10.86754 -28.49441,-10.86754 -39.36353,0 l -27.96353,27.96763 -10.98088,-40.96529 c -3.97882,-14.84752 -19.2347,-23.64616 -34.08823,-19.67936 -14.84795,3.98 -23.655,19.2413 -19.67618,34.08936 l 19.29618,72.00723 -192.64603,192.64313 V 160.36467 l 64.55808,-37.27293 c 13.31118,-7.68554 17.87677,-24.705943 10.18736,-38.018684 -7.68941,-13.31501 -24.70894,-17.873874 -38.01844,-10.186643 l -36.727,21.204593 V 52.832199 C 527.83221,37.461378 515.37044,25 500,25 484.62956,25 472.16779,37.461378 472.16779,52.832199 V 223.0666 c -140.44744,14.00888 -250.48817,132.85982 -250.48817,276.93393 0,144.07569 110.04073,262.92663 250.48817,276.93393 V 947.17012 C 472.16779,962.5391 484.62956,975 500,975 c 15.37044,0 27.83221,-12.4609 27.83221,-27.82988 v -43.2569 l 36.727,21.20623 c 4.38285,2.52806 9.16806,3.7314 13.89011,3.7314 9.62127,0 18.97597,-4.9928 24.12833,-13.92285 7.68941,-13.31063 3.12382,-30.33156 -10.18736,-38.01604 L 527.83221,839.6348 V 567.1944 l 192.64603,192.64524 -19.29618,72.0104 c -3.97882,14.84647 4.83382,30.10461 19.68176,34.08408 2.41412,0.64389 4.83383,0.95528 7.22,0.95528 12.28853,0 23.53765,-8.20171 26.86824,-20.63623 l 10.97529,-40.96106 27.96353,27.96182 c 5.43736,5.43615 12.55677,8.15422 19.68177,8.15422 7.11941,0 14.24441,-2.71807 19.67617,-8.15422 10.86912,-10.867 10.86912,-28.4896 0,-39.3566 l -27.96911,-27.9671 40.96735,-10.97784 c 14.84794,-3.97947 23.66059,-19.24289 19.68176,-34.08936 -3.97882,-14.84647 -19.2347,-23.66041 -34.08823,-19.68094 l -72.01,19.29566 -192.63877,-192.64471 h 272.44436 l 37.26794,64.55761 c 5.15794,8.93005 14.51265,13.92286 24.13,13.92286 4.72206,0 9.51118,-1.20334 13.89235,-3.73669 13.31118,-7.68449 17.87118,-24.70542 10.18735,-38.01604 l -21.20176,-36.72774 h 43.25853 c 15.36765,0 27.82941,-12.46143 27.82941,-27.83251 0,-15.37056 -12.46176,-27.83199 -27.82941,-27.83199 z m -669.82712,27.83199 c 0,-113.34935 85.13844,-207.18243 194.82432,-220.92056 V 720.92109 C 362.48191,707.18296 277.34347,613.34882 277.34347,500.00053 Z" />
    <path
       style="fill:#79797b;stroke-width:54.3080368"
       id="path4"
       d="m 169.82694,500.00264 c 0,-15.37056 -12.46176,-27.83199 -27.8322,-27.83199 H 52.832038 C 37.461318,472.17065 25,484.63208 25,500.00264 c 0,15.37056 12.461318,27.83199 27.832038,27.83199 h 89.162702 c 15.37044,0 27.8322,-12.46143 27.8322,-27.83199 z" />
    <path
       style="fill:#79797b;stroke-width:54.3080368"
       id="path6"
       d="m 227.17341,266.52723 c 5.43456,5.43667 12.55788,8.15316 19.67897,8.15316 7.12109,0 14.24609,-2.71807 19.67897,-8.15316 10.86968,-10.86753 10.86968,-28.48855 0,-39.3603 l -63.04479,-63.04921 c -10.86577,-10.86912 -28.48882,-10.86912 -39.36018,0 -10.86967,10.86753 -10.86967,28.48907 0,39.3603 z" />
    <path
       style="fill:#79797b;stroke-width:54.3080368"
       id="path8"
       d="m 227.17341,733.46644 -63.04703,63.0434 c -10.86967,10.87228 -10.86967,28.49488 0,39.36189 5.43456,5.43614 12.55788,8.15421 19.67897,8.15421 7.12109,0 14.24609,-2.71807 19.67897,-8.15421 l 63.04703,-63.04869 c 10.86968,-10.867 10.86968,-28.4896 0,-39.3566 -10.86744,-10.86701 -28.4905,-10.86701 -39.35794,0 z" />
    <path
       style="fill:#79797b;stroke-width:54.3080368"
       id="path10"
       d="m 340.08427,178.51083 c 4.3767,10.83217 14.80435,17.40831 25.8115,17.40831 3.47308,0 7.00429,-0.65497 10.42205,-2.03723 14.25,-5.75967 21.13359,-21.98418 15.37045,-36.23426 L 358.27118,74.982575 c -5.75924,-14.250079 -21.98524,-21.13577 -36.23356,-15.370769 -14.25,5.759407 -21.13359,21.983703 -15.37044,36.233782 z" />
    <path
       style="fill:#79797b;stroke-width:54.3080368"
       id="path12"
       d="m 193.9385,623.74083 c -5.75924,-14.25008 -21.98524,-21.13762 -36.23356,-15.37426 l -82.662796,33.41908 c -14.25,5.75809 -21.133756,21.98207 -15.370665,36.23214 4.378886,10.83534 14.804745,17.41149 25.811668,17.41149 3.473088,0 7.004294,-0.65445 10.422059,-2.03723 l 82.662854,-33.41908 c 14.25,-5.75809 21.13359,-21.98206 15.37044,-36.23214 z" />
    <path
       style="fill:#79797b;stroke-width:54.3080368"
       id="path14"
       d="m 374.76262,805.5085 c -14.22765,-5.8267 -30.47768,0.98168 -36.30788,15.20009 l -33.81218,82.50268 c -5.82965,14.22369 0.97626,30.47933 15.19832,36.31131 3.45465,1.41445 7.02833,2.08473 10.54444,2.08473 10.95853,0 21.35097,-6.51809 25.76512,-17.28481 l 33.81218,-82.50268 c 5.82797,-14.22369 -0.97571,-30.47934 -15.2,-36.31132 z" />
    <path
       style="fill:#79797b;stroke-width:54.3080368"
       id="path16"
       d="m 75.684344,356.19242 82.503416,33.81016 c 3.45298,1.41604 7.02665,2.08579 10.54277,2.08579 10.96021,0 21.35097,-6.51651 25.76512,-17.28587 5.82964,-14.22211 -0.97627,-30.47775 -15.2,-36.30604 L 96.792059,304.68578 c -14.220382,-5.82776 -30.477844,0.97639 -36.305871,15.20008 -5.831714,14.22264 0.972297,30.47828 15.198156,36.30656 z" />
  </g>
  <defs
     id="defs23">
    <clipPath
       id="clip0">
      <rect
         style="fill:#ffffff"
         y="0"
         x="0"
         id="rect20"
         height="18"
         width="17" />
    </clipPath>
  </defs>
</svg>
