<?xml version="1.0" encoding="UTF-8" standalone="no"?>
<svg
   xmlns:dc="http://purl.org/dc/elements/1.1/"
   xmlns:cc="http://creativecommons.org/ns#"
   xmlns:rdf="http://www.w3.org/1999/02/22-rdf-syntax-ns#"
   xmlns:svg="http://www.w3.org/2000/svg"
   xmlns="http://www.w3.org/2000/svg"
   style="fill:none"
   id="svg8"
   version="1.1"
   viewBox="0 0 1000 500"
   height="500"
   width="1000">
  <metadata
     id="metadata14">
    <rdf:RDF>
      <cc:Work
         rdf:about="">
        <dc:format>image/svg+xml</dc:format>
        <dc:type
           rdf:resource="http://purl.org/dc/dcmitype/StillImage" />
        <dc:title></dc:title>
      </cc:Work>
    </rdf:RDF>
  </metadata>
  <defs
     id="defs12" />
  <g
     id="g27">
    <path
       d="M 48.15092,470.63385 951.03219,454.93136"
       id="path2"
       style="stroke:#385185;stroke-width:15.43394661" />
    <path
       d="M 966.26858,239.06137 C 961.23403,186.91315 955.25029,134.57447 951.07077,82.33088 948.12598,45.28555 926.18354,23.0582 888.75776,23.0582 h -12.63269 c -4.00048,2.73613 -8.73716,4.19356 -13.58342,4.17951 H 101.02068 c -4.876204,0.0154 -9.643441,-1.44153 -13.678338,-4.17951 -3.419545,0 -6.83909,0 -10.353709,0 C 70.234584,22.93473 63.522669,24.14938 57.24275,26.63841 50.962677,29.1276 45.239615,32.83946 40.405826,37.55839 35.571991,42.27732 31.72366,47.90948 29.084193,54.12781 26.444722,60.346 25.06671,67.02673 25.030144,73.78202 c 0,74.91405 0,149.95498 0,225.12139 H 972.06249 c -1.80423,-19.94683 -3.89399,-39.89366 -5.79391,-59.84204 z M 721.57879,160.03123 c 0.0123,0.53247 -0.0818,1.06031 -0.27627,1.55589 -0.19447,0.49543 -0.48617,0.9461 -0.85813,1.32732 -0.37196,0.38122 -0.81645,0.68218 -1.30571,0.889 -0.4908,0.20681 -1.0171,0.31176 -1.54957,0.31176 H 88.10231 c -0.656715,0.002 -1.304015,-0.15742 -1.884331,-0.46456 -0.580316,-0.30713 -1.075746,-0.75318 -1.442148,-1.29799 -0.366556,-0.54482 -0.592818,-1.17298 -0.658721,-1.82569 -0.0659,-0.65285 0.03041,-1.31342 0.280744,-1.92029 L 115.83881,80.81126 c 0.28723,-0.75164 0.79454,-1.39832 1.45558,-1.85532 0.66103,-0.45839 1.44508,-0.70533 2.24903,-0.70996 h 598.42537 c 0.53247,-1.6e-4 1.05877,0.10804 1.54956,0.31331 0.4908,0.20681 0.93376,0.50932 1.30572,0.88899 0.37195,0.38122 0.66366,0.83189 0.85812,1.32732 0.19602,0.49543 0.28862,1.02327 0.27627,1.5559 z m 104.48782,104.48689 h -26.88285 c -1.49246,-0.18675 -2.86763,-0.91215 -3.86312,-2.04037 -0.99703,-1.12822 -1.54648,-2.58055 -1.54648,-4.08691 0,-1.50481 0.54945,-2.95714 1.54648,-4.08536 0.99549,-1.12822 2.37066,-1.85362 3.86312,-2.04037 h 26.59732 c 1.49401,0.18675 2.86763,0.91215 3.86312,2.04037 0.99703,1.12822 1.54648,2.58055 1.54648,4.08536 0,1.50636 -0.54945,2.95869 -1.54648,4.08691 -0.99549,1.12822 -2.36911,1.85362 -3.86312,2.04037 z m 70.86034,-3.79984 -104.01246,-88.0536 c -1.05414,-0.97079 -1.87522,-2.16631 -2.40152,-3.49872 -0.5263,-1.33195 -0.74392,-2.76669 -0.63742,-4.19525 l -1.52025,-77.7005 c 0.27627,-2.09856 1.30417,-4.02579 2.89387,-5.42334 1.58969,-1.39831 3.63315,-2.17078 5.75069,-2.17557 h 97.64749 c 5.05616,-0.003 9.93483,1.86998 13.68991,5.25665 3.75508,3.38652 6.11956,8.04587 6.63814,13.07595 l 15.29196,144.66747 c 0.41208,4.06376 -0.39974,8.15684 -2.32899,11.75758 -1.92924,3.5992 -4.88947,6.54245 -8.50101,8.45009 -3.61,1.90763 -7.70926,2.69322 -11.76993,2.25798 -4.06222,-0.43524 -7.90064,-2.07278 -11.02601,-4.70272 z"
       id="path4"
       style="fill:#395185;stroke-width:15.43394661" />
    <path
       d="m 974.90851,336.99131 c 0,-9.97342 -1.23626,-19.94684 -2.08976,-29.9218 H 25.025687 c 0,9.4996 0,18.99765 0,28.49724 -0.414491,12.76696 4.201054,25.18666 12.852954,34.58439 8.651869,9.39927 20.648213,15.02341 33.406377,15.66391 1.709773,0 31.630952,0 79.505042,0 -0.57136,3.45412 -0.85735,6.94837 -0.85488,10.44879 -0.002,16.93258 6.14101,33.29102 17.28926,46.03792 11.14809,12.74535 26.54268,21.01177 43.32556,23.26204 16.78287,2.25181 33.81269,-1.66378 47.92549,-11.01984 14.11434,-9.35606 24.35168,-23.5167 28.81209,-39.85199 4.15482,16.64088 14.28258,31.17348 28.45557,40.83359 14.17299,9.66011 31.40191,13.77171 48.41012,11.5554 17.00821,-2.21632 32.6073,-10.6093 43.83086,-23.57844 11.22203,-12.97069 17.28603,-29.61312 17.03754,-46.76332 -0.0324,-3.18093 -0.28707,-6.35415 -0.7609,-9.49959 h 279.74029 c 0,18.54234 7.36663,36.32379 20.47622,49.43493 13.11114,13.11114 30.89413,20.47776 49.43493,20.47776 18.54235,0 36.3238,-7.36662 49.43494,-20.47776 13.11113,-13.11114 20.47621,-30.89259 20.47621,-49.43493 51.0092,0 83.49611,0 85.49018,0 29.63626,-2.65927 47.11367,-20.99171 45.59497,-50.2483 z m -754.68143,98.78806 c -7.76327,-0.0154 -15.34597,-2.34133 -21.78964,-6.67055 -6.44213,-4.33077 -11.45508,-10.47656 -14.40451,-17.65644 -2.94942,-7.18141 -3.70106,-15.07588 -2.16229,-22.68481 1.54031,-7.60894 5.3031,-14.58971 10.81302,-20.0595 5.50838,-5.46825 12.51693,-9.18011 20.13667,-10.66486 7.61974,-1.48475 15.50803,-0.67446 22.66784,2.3259 7.15981,3.0019 13.26702,8.0596 17.55148,14.5326 4.28292,6.47454 6.55017,14.07422 6.51159,21.83749 -0.0494,10.38859 -4.2181,20.33114 -11.5909,27.64992 -7.37125,7.31878 -17.34621,11.41494 -27.73326,11.39025 z m 134.88344,0 c -7.76791,0 -15.35987,-2.30583 -21.81589,-6.62425 -6.45447,-4.31996 -11.48285,-10.45804 -14.44617,-17.63791 -2.96332,-7.17833 -3.73038,-15.07588 -2.20088,-22.69099 1.5295,-7.61511 5.28458,-14.60515 10.78987,-20.0842 5.50529,-5.47905 12.51385,-9.20017 20.13667,-10.69264 7.62129,-1.49246 15.51575,-0.68835 22.68019,2.31047 7.16598,2.99881 13.27937,8.05652 17.56692,14.5326 4.28755,6.47608 6.55634,14.08039 6.5193,21.84675 -0.0756,10.3639 -4.23971,20.27866 -11.58473,27.58973 -7.34655,7.31106 -17.28139,11.42575 -27.64528,11.45044 z M 773.91221,425.2349 c -7.78488,-0.0309 -15.38455,-2.38609 -21.8344,-6.74618 -6.44985,-4.36163 -11.45971,-10.5383 -14.39524,-17.74904 -2.93554,-7.21228 -3.66557,-15.13144 -2.09593,-22.75735 1.56963,-7.62592 5.36792,-14.61441 10.91334,-20.07957 5.54542,-5.46516 12.58793,-9.16159 20.23545,-10.6201 7.64906,-1.45851 15.55742,-0.61581 22.72494,2.42467 7.16753,3.04049 13.27165,8.13987 17.5376,14.65299 4.26748,6.51159 6.5054,14.14522 6.42978,21.9301 -0.12502,10.38859 -4.3462,20.30799 -11.74678,27.60053 -7.39903,7.29408 -17.37862,11.37019 -27.76876,11.34395 z"
       id="path6"
       style="fill:#395185;stroke-width:15.43394661" />
  </g>
</svg>
