<?xml version="1.0" encoding="UTF-8" standalone="no"?>
<svg
   xmlns:dc="http://purl.org/dc/elements/1.1/"
   xmlns:cc="http://creativecommons.org/ns#"
   xmlns:rdf="http://www.w3.org/1999/02/22-rdf-syntax-ns#"
   xmlns:svg="http://www.w3.org/2000/svg"
   xmlns="http://www.w3.org/2000/svg"
   style="fill:none"
   id="svg25"
   version="1.1"
   viewBox="0 0 1000 1000"
   height="1000"
   width="1000">
  <metadata
     id="metadata29">
    <rdf:RDF>
      <cc:Work
         rdf:about="">
        <dc:format>image/svg+xml</dc:format>
        <dc:type
           rdf:resource="http://purl.org/dc/dcmitype/StillImage" />
        <dc:title></dc:title>
      </cc:Work>
    </rdf:RDF>
  </metadata>
  <g
     id="g47">
    <path
       style="fill:#79797b;stroke-width:59.58558655"
       id="path2"
       d="m 500.95441,785.12949 c -46.20025,0 -83.49114,42.39889 -83.49114,94.93208 0,52.53319 37.29089,94.93843 83.49114,94.93843 46.20026,0 83.49004,-42.40524 83.49004,-94.93843 0,-52.53319 -37.28978,-94.93208 -83.49004,-94.93208 z" />
    <path
       style="fill:#79797b;stroke-width:59.58558655"
       id="path4"
       d="M 974.94412,207.92772 908.71067,311.7208 C 800.17117,213.62135 657.30516,156.66274 515.92833,152.86762 H 500.89798 C 353.95336,151.5994 204.22596,209.19339 91.789454,311.7208 L 25,207.92772 47.819055,188.93876 C 175.2806,83.246526 339.47956,23.752114 500.89798,25.020332 653.96359,26.286008 823.55097,82.611782 974.94412,207.92772 Z" />
    <path
       style="fill:#79797b;stroke-width:59.58558655"
       id="path6"
       d="M 844.18711,412.36494 777.94806,516.79467 C 703.91948,445.91045 601.12993,405.40499 500.94324,405.40499 h -2.22622 c -99.07806,0.63284 -202.04865,41.13639 -275.52068,111.38968 l -66.79336,-104.42973 22.26278,-18.35231 c 92.95538,-77.21578 213.18087,-115.82209 322.27748,-115.82209 109.09941,0 228.02123,38.60631 320.98165,115.82209 z" />
    <path
       style="fill:#79797b;stroke-width:59.58558655"
       id="path8"
       d="m 713.32951,617.40832 -66.79225,104.431 c -35.6229,-38.61202 -89.98932,-59.49695 -132.84856,-62.66114 -4.45077,0 -8.34722,-0.62903 -12.79966,-0.62903 -46.75737,0 -107.98239,19.62053 -146.94462,62.65479 l -66.79281,-103.79562 22.26613,-18.98515 c 53.43212,-44.30375 125.79328,-68.35605 191.47297,-67.08783 65.11923,1.89661 143.41698,28.48026 212.4388,86.07298 z" />
    <path
       style="fill:#79797b;stroke-width:59.58558655"
       id="path10"
       d="m 584.44445,880.0298 c 0,52.53319 -37.28978,94.93843 -83.49004,94.93843 V 785.09772 c 46.20026,0 83.49004,42.40524 83.49004,94.93208 z" />
    <path
       style="fill:#79797b;stroke-width:59.58558655"
       id="path12"
       d="m 500.95441,531.31818 c 65.12091,1.89661 143.42033,28.4809 212.44216,86.07743 l -66.79225,104.42465 c -35.62291,-38.60567 -89.98933,-59.4906 -132.84801,-62.65479 -4.45077,0 -8.34722,-0.63538 -12.80022,-0.63538 V 531.31818 Z" />
    <path
       style="fill:#79797b;stroke-width:59.58558655"
       id="path14"
       d="m 821.93606,393.97959 22.26222,18.35231 -66.23904,104.42973 C 703.93065,445.87741 601.14111,405.37195 500.95441,405.37195 V 278.15941 c 109.09382,0 228.02124,38.6044 320.98165,115.82018 z" />
    <path
       style="fill:#79797b;stroke-width:59.58558655"
       id="path16"
       d="M 975,207.90738 908.76654,311.70047 C 800.22705,213.60166 657.36104,156.64304 515.98477,152.84792 H 500.95441 V 25 C 654.01947,26.266312 823.60685,82.592085 975,207.90738 Z" />
  </g>
  <defs
     id="defs23">
    <clipPath
       id="clip0">
      <rect
         style="fill:#ffffff"
         y="0"
         x="0"
         id="rect20"
         height="17"
         width="17" />
    </clipPath>
  </defs>
</svg>
