<?xml version="1.0" encoding="UTF-8" standalone="no"?>
<svg
   xmlns:dc="http://purl.org/dc/elements/1.1/"
   xmlns:cc="http://creativecommons.org/ns#"
   xmlns:rdf="http://www.w3.org/1999/02/22-rdf-syntax-ns#"
   xmlns:svg="http://www.w3.org/2000/svg"
   xmlns="http://www.w3.org/2000/svg"
   width="1000"
   height="1000"
   viewBox="0 0 1000 1000"
   version="1.1"
   id="svg17"
   style="fill:none">
  <metadata
     id="metadata21">
    <rdf:RDF>
      <cc:Work
         rdf:about="">
        <dc:format>image/svg+xml</dc:format>
        <dc:type
           rdf:resource="http://purl.org/dc/dcmitype/StillImage" />
        <dc:title></dc:title>
      </cc:Work>
    </rdf:RDF>
  </metadata>
  <g
     id="g20">
    <path
       d="M 822.64115,524.33602 V 452.6134 c 54.55894,-1.40838 98.50575,-44.4404 98.50575,-97.17134 v -60.08335 c 17.41031,-0.0909 31.55775,-13.70256 31.55775,-30.43384 v -72.15902 c 0,-16.78651 -14.23411,-30.44098 -31.73111,-30.44098 H 890.95746 V 43.554687 C 890.95746,33.308819 882.29564,25 871.60922,25 860.92899,25 852.26099,33.308819 852.26099,43.554687 V 162.32488 H 754.32485 V 43.554687 C 754.32485,33.308819 745.66303,25 734.97661,25 724.29019,25 715.62837,33.308819 715.62837,43.554687 V 162.32487 h -29.96036 c -17.52795,0 -31.78684,13.65447 -31.78684,30.44098 v 72.1608 c 0,16.71229 14.13505,30.31094 31.56395,30.42969 v 60.08572 c 0,52.73271 43.94062,95.76475 98.49955,97.17134 v 71.72262 c -85.57183,9.25717 -152.30313,79.14154 -152.30313,163.71648 0,84.60344 66.7313,154.50563 152.30313,163.76813 v 14.62999 c 0,39.38938 -33.37183,71.44 -74.3901,71.44 H 364.07616 c -41.01826,0 -74.39011,-32.05062 -74.39011,-71.44 v -52.49937 h 173.00421 c 29.24648,0 53.04265,-22.83563 53.04265,-50.90219 V 543.93929 c 0,-10.24575 -8.66367,-18.55469 -19.34762,-18.55469 -10.68456,0 -19.34824,8.30894 -19.34824,18.55469 v 219.10977 c 0,7.47531 -6.56911,13.79282 -14.34494,13.79282 H 78.041104 c -7.775825,0 -14.344629,-6.31157 -14.344629,-13.79282 V 158.15972 c 0,-7.47591 6.568804,-13.79162 14.344629,-13.79162 h 55.881416 272.83183 55.93591 c 7.77581,0 14.34432,6.31394 14.34432,13.79162 v 219.16203 c 0,10.24635 8.66243,18.55469 19.34823,18.55469 10.68643,0 19.34824,-8.30834 19.34824,-18.55469 V 158.15972 c 0,-28.06597 -23.79431,-50.901 -53.04265,-50.901 H 426.10072 V 84.683156 C 426.10259,51.774444 398.20459,25 363.91146,25 H 176.76355 C 142.4729,25 114.57491,51.774444 114.57491,84.683156 V 107.25872 H 78.041104 C 48.794494,107.25872 25,130.09375 25,158.15972 V 763.055 c 0,28.06656 23.794494,50.90219 53.041104,50.90219 H 250.98957 v 52.49937 c 0,59.85 50.73078,108.54344 113.08659,108.54344 h 345.47841 c 62.36014,0 113.08658,-48.69344 113.08658,-108.54344 v -14.63593 c 85.6028,-9.25657 152.35886,-79.16469 152.35886,-163.76813 0,-84.57671 -66.75606,-154.46109 -152.35886,-163.71648 z M 153.27076,84.683156 c 0,-12.446603 10.53906,-22.573781 23.49279,-22.573781 h 187.14791 c 12.95559,0 23.49465,10.127178 23.49465,22.573781 V 107.25872 H 153.27076 Z M 692.57765,199.43425 h 221.42434 v 58.824 H 692.57765 Z m 31.55775,156.00781 v -60.07444 h 158.31503 v 60.07444 c 0,33.15559 -28.06578,60.12848 -62.55828,60.12848 h -33.19847 c -34.49249,0 -62.55828,-26.97289 -62.55828,-60.12848 z m 79.15751,460.32607 c -73.31278,0 -132.9549,-57.29094 -132.9549,-127.71563 0,-70.39144 59.64212,-127.65863 132.9549,-127.65863 73.34375,0 133.01063,57.26719 133.01063,127.65863 0,70.42469 -59.66688,127.71563 -133.01063,127.71563 z"
       id="path2"
       style="fill:#79797b;stroke-width:60.63138962" />
    <path
       d="M 835.30264,669.49781 H 802.6552 l 25.8059,-49.75625 c 4.76121,-9.17522 0.86061,-20.31337 -8.70516,-24.87635 -9.57195,-4.56594 -21.18709,-0.8253 -25.94211,8.34992 l -39.71807,76.57831 c -6.27192,12.11843 3.2505,26.81375 17.36698,26.81375 h 32.63506 l -25.79352,49.8275 c -4.74883,9.17937 -0.84823,20.31218 8.72992,24.87218 2.76139,1.31219 5.69613,1.93563 8.58753,1.93563 7.11396,0 13.96787,-3.77625 17.34221,-10.3075 l 39.66852,-76.62938 c 0.35912,-0.70062 0.66249,-1.43093 0.92873,-2.16125 4.28447,-11.82156 -5.16985,-24.64656 -18.25855,-24.64656 z"
       id="path4"
       style="fill:#79797b;stroke-width:60.63138962" />
    <path
       d="m 125.61053,185.208 c -10.6858,0 -19.34824,8.30894 -19.34824,18.55469 V 717.455 c 0,10.24812 8.66244,18.55469 19.34824,18.55469 h 289.65084 c 10.68643,0 19.34824,-8.30657 19.34824,-18.55469 V 203.76269 c 0,-10.24575 -8.66181,-18.55469 -19.34824,-18.55469 z M 395.91314,698.90031 H 144.95876 v -89.01262 h 250.95438 z m 0,-126.12021 H 144.95876 v -82.70345 h 250.95438 z m 0,-119.81283 H 144.95876 v -93.64208 h 250.95438 z m 0,-130.74967 H 144.95876 v -99.90022 h 250.95438 z"
       id="path6"
       style="fill:#79797b;stroke-width:60.63138962" />
    <path
       d="m 496.37166,442.07434 c -10.68641,0 -19.34824,8.30894 -19.34824,18.55469 v 0.0523 c 0,10.24575 8.66183,18.52856 19.34824,18.52856 10.6858,0 19.34824,-8.33446 19.34824,-18.58259 0,-10.24752 -8.66244,-18.55291 -19.34824,-18.55291 z"
       id="path8"
       style="fill:#79797b;stroke-width:60.63138962" />
  </g>
  <defs
     id="defs15" />
</svg>
