<svg xmlns="http://www.w3.org/2000/svg" viewBox="0 0 968 708"><defs><style>.cls-1{fill:#fefefe;}.cls-2{fill:#02a0fe;}.cls-3{fill:#22298d;}.cls-4{fill:#32a8e3;}.cls-5{fill:#20288c;}.cls-6{fill:#37aae3;}.cls-7{fill:#172187;}.cls-8{fill:#2a3291;}.cls-9{fill:#293190;}.cls-10{fill:#182188;}.cls-11{fill:#313894;}.cls-12{fill:#303794;}.cls-13{fill:#5250a5;}.cls-14{fill:#1dabfe;}.cls-15{fill:#f2f0f8;}</style></defs><g id="Layer_2" data-name="Layer 2"><g id="Layer_1-2" data-name="Layer 1"><path class="cls-1" d="M0,0H968V708H0ZM429.16,178l-.06,0-1,.93h0l-1,1h0l-1,1-2.95,2.33-.93.73-.07.05-1,.92,0,0-1,1-5,4.33-.91.73-.08.07-1,.9-.05,0-1,.94,0,0-1,1-6,5.33-.89.73-.09.08-1,.9-.06,0-1,.93,0,0-1,1v0l-1,1h0l-1,1-9,8.33-.88.74-.09.09-.93.9-.08.07-.95.92-.06.06-1,.93,0,0-1,.94,0,0-1,1,0,0-1,1,0,0c-.32.33-.65.65-1,1l0,0-1,1,0,0-1,1,0,0-1,1,0,0-1,1,0,0-1,1h0l-1,1h0l-1,1h0l-1,1h0l-1,1h0l-1,1h0l-1,1h0l-1,1h0l-1,1h0l-1,1h0l-1,1h0l-1,1h0l-1,1h0l-1,1v0l-1,1v0c-.33.33-.65.66-1,1l0,0-1,1,0,0-1,1,0,0-.95,1,0,0-.94,1,0,.06-.94.95-.06.06-.92.94-.07.08-.91.93-.08.09-.91.92-.09.08-.74.89-10.33,11-1,1h0l-1,1h0l-1,1h0l-1,1h0l-1,1,0,0-1,1,0,0-.95,1,0,.05-.92,1-.06.08-.9.94-.09.09-.73.89q-3.18,3.47-6.34,7l-1,1h0l-1,1v0l-1,1,0,0-.95,1,0,.05-.93,1,0,.06c-.3.32-.6.64-.91,1l-.07.09-.9.92-.1.1-.74.88-1.3,1.2L316.3,289l-.27,1-3.28,3.5-.27.33L294,311l-.94.35-.92.72-.07.06-1,.91,0,0-1,1-4,3.31-.95.73-.05.05-1,.92h0l-1,1-3,2.33-.92.73-.08.06-1,.9,0,0-1,1-3,2.33-.93.73-.07,0-1,.91v0l-1,1-3,2.33-.93.73-.07.06-1,.91,0,0-1,1c-4.39,4.27-8.74,8.6-13.21,12.79a40.38,40.38,0,0,1-4.76,3.37,27.67,27.67,0,0,1,1.13-4.67A318.9,318.9,0,0,1,305.77,258,445.2,445.2,0,0,1,378,194.05c33.16-23.46,69.08-41.51,107.3-55.17,25.7-9.19,52-15.8,79.13-18.71a289.19,289.19,0,0,1,42.25-1.06c12.14.49,24.28,2.45,36.29,4.51,7.46,1.28,14.67,4,22,6l.69-1a34.06,34.06,0,0,0-4.11-3C637.6,113,611.81,107,585.13,105.17a297,297,0,0,0-78.75,5c-48.88,9.71-94.75,27.84-137.87,52.35C318.51,191,275.22,227.71,238.3,272c-23.13,27.77-41.76,58.05-54.48,91.86-12.61,33.5-19.93,68-13.56,103.8,6,33.95,23.47,61.68,51,82.28,34.68,25.93,75.33,32.63,117.28,32.69,16.3,0,32.69-2.47,48.9-4.75,34.95-4.91,68.33-15.71,100.2-30.46,20.72-9.6,40.3-21.66,60.39-32.61l13.3-8.63-1-1.55L548,511.82c-14.81,6.66-29.4,13.87-44.47,19.87C469,545.43,433.19,553.8,396,555.76a213.55,213.55,0,0,1-54.45-3.69c-34.36-7.07-65.09-20.56-86.64-49.79-4.2-5.7-7.31-12.2-10.92-18.33,1.83-.05,3.65-.12,5.48-.12q211.28,0,422.55.1c6.44,0,11.51-1.92,15.11-6.86a76,76,0,0,0,8.7-14.7c5.06-11.94,4.61-24.81,5-37.44.21-7.6-.36-15.24-.86-22.85-.53-8.23-1-16.49-2.18-24.65-2-14.44-4-28.9-6.87-43.19-4.34-21.95-8.8-43.9-14.3-65.58a222.45,222.45,0,0,0-12.88-35.79c-4.24-9.5-11.82-16.25-22.8-17.85-9.77-1.42-19.61-2.48-29.33-4.19-17.24-3-34.38-6.7-51.63-9.65-19.07-3.26-38.21-6.06-57.34-9-3.39-.52-6.83-.68-10.25-1l-.23,1.26c1.47.47,2.93,1,4.42,1.39,27.39,7.41,54.72,15,82.19,22.12,18.18,4.69,36.58,8.52,54.81,13,4,1,7.78,3.18,11.66,4.81l-.51,1.13L467.06,196.76c1.73,6.32,3.24,11.74,4.69,17.18,1.51,5.68,2.93,11.38,4.44,17.05,1,3.8,1.07,8.59,3.48,11,2,2.05,6.82,1.35,10.39,1.89.48.08.92.42,1.4.49,10.72,1.5,21.44,3.08,32.18,4.43,9.63,1.2,19.3,2.1,28.94,3.22,10.45,1.21,20.88,2.6,31.33,3.77,7.53.84,15.09,1.44,22.63,2.19,1.41.14,2.81.46,4.21.7l.2-1.51c-5.35-1-10.68-2.22-16.06-3.08-15.22-2.44-30.46-4.73-45.68-7.1-19.27-3-38.54-5.93-57.78-9.06-2.55-.41-6.63-1.31-7.13-2.9-2.65-8.37-4.38-17-6.59-26.24a47.26,47.26,0,0,1,5.15.35c20.24,3.86,40.44,7.88,60.7,11.63,17.22,3.19,34.49,6.13,51.76,9.11q23.48,4.05,47,7.93c2.89.49,5.14,1.52,6.22,4.55,1,2.76,2.79,5.29,3.41,8.1,3.88,17.52,7.81,35,11.17,52.67,3.08,16.06,5.46,32.26,8.23,48.87-2.35,0-4.32.16-6.26,0-13-1.26-25.89-2.74-38.86-3.86-10.21-.88-20.45-1.46-30.69-2-16.07-.79-32.14-1.51-48.22-2.05-14.94-.51-29.9-.75-44.85-1.13a3.21,3.21,0,0,1-1.15-.43c-1.93-25-4.61-49.64-12.41-73.46a16.49,16.49,0,0,0-.67,5.47c.61,8.39,1.49,16.77,2,25.17,1,16.84,1.83,33.7,2.75,51.05a40.41,40.41,0,0,0,5.71,1c14.07.74,28.14,1.55,42.21,2,19,.56,37.91.77,56.86,1.14,1.66,0,3.32.17,5,.19,12.8.18,25.59.4,38.39.5,9.9.08,19.81,0,30,0,1,10.74,2.16,21.71,3.15,32.68,1.63,18.08,4.65,36.18,1.84,54.33-2.53,16.34-7.46,22.41-23.23,23.35s-31.91.8-47.87,1.14q-23.43.48-46.87,1-25.43.53-50.86,1-25.18.52-50.36,1.09c-1,0-2,.15-3,.19L412,472.21c-.74-5.86-1.18-11.26-2.14-16.56-2.3-12.71-4.44-25.49-10.78-37-7.48-13.59-16.33-18.27-28.54-15.55-8.75,1.95-17.1,11.78-18.12,22.2,2.54-3.68,4.37-6.5,6.37-9.2,3.35-4.51,7.65-7.68,13.4-8.19,9.4-.82,14.06,3.79,17.72,12.61a104.57,104.57,0,0,1,6.93,25.85c1.16,8.39.25,17.07.25,25.55H391c0-6.94.09-13.59,0-20.24-.15-8.74-3.05-16.78-7.45-24.13-4.86-8.11-13.51-9.49-18.84-3.34a24.92,24.92,0,0,0-4.41,7.55c-4.83,13.18-4.2,26.47-.27,39.75a4.15,4.15,0,0,1-.17,1.41h-4.6c-1.94-8.65-3.83-17.14-5.73-25.62l-.77.08v26.41l-60.26,1.81c-.49-5.75-.58-11.72-1.61-17.51a14.09,14.09,0,0,0-13.7-12c-5.76,0-11.45,4.79-12.87,11.69-1.29,6.23-1.9,12.61-3,20.42H241c-6.57-11.54-8.92-24.32-9.9-37.25a270.67,270.67,0,0,1-.08-30.68,122.06,122.06,0,0,1,8.8-40.12l3.09-1.25,0,0,1-.94,0,0,1-.95,0,0,1-1,0,0,1-1h0l1-1,8-7.33.9-.74.08-.07,1-.91.06-.06,1-.93,0,0,1-.94,0,0,1-1,0,0,1-1v0l1-1h0l1-1h0l1-1h0l1-1h0l1-1h0l1-1h0l1-1h0l1-1h0l1-1h0l1-1v0l1-1,0,0,.92-1,.05-.06.74-.93,3.32-4,1-1h0l1-1v0l.94-1,0,0,.9-1,.07-.08.74-.91L286,325l1-1h0l1-1h0l1-1h0l1-1,0,0,.93-1,.05-.06.91-1,.07-.09.74-.9L296,314l23-22,5-4.32.93-.73.06-.05,1-.92,0,0,1-1,4-3.3,1-.73,0,0,1-.94,4-3.32.93-.73.07-.05,1-.91,0,0,1-1,1-1,1-1,1.94-1.32.94-.74.06,0,1-.92,0,0,1-1,4-3.34.9-.73.09-.06,1-.9,0,0c.33-.32.67-.63,1-.94v0l1-1,4-3.34.89-.73.09-.07,1-.9.06,0,1-.94,0,0,1-1h0l1-1h0l1-1,6.95-6.33.91-.73.08-.07,1-.91.05,0,1-.94,0,0,1-1h0l1-1,6-5.34.9-.73.09-.07,1-.9.06,0,1-.94,0,0,1-1,0,0,1-1h0l1-1h0l1-1h0l1-1,10-9.33.88-.74.09-.1.91-.9.09-.09.93-.9.08-.08.94-.91.07-.07.93-.93.07-.07.94-.93.06-.06.95-.94.05-.06.95-.94.06,0,.95-.94.05,0,.95-1,.05,0,.95-1,.05,0,.94-1,.06,0,.94-1,.05-.06.94-.94.06-.06.94-.94.06-.07.93-.94.07-.06.92-.94.07-.07.91-.94.08-.09.9-.91.1-.1.74-.88,9.34-9.95,1-1h0l1-1h0l1-1v0l1-1,0,0,1-1,0,0,1-.93h6.11l6,.76,10.05.23c5.45,1.83,10.85,1.18,16.36-.75l-3.47-.95-2-.24-1-.71-3-.29-1-.71-3-.29-1-.71-3-.29-1-.71-3-.28-2-.75L449,177l-2-.77-3-.25-2-.76-3-.23-2-.76-2.92,0-1.05.74-2.94,2.31Zm62-24.59c5.08.82,9,1.69,12.95,2,8.7.81,17.65,3,26.08,1.72,26.7-3.9,52.76-2.68,78.06,6.85,15,5.66,28.59,13.62,39.25,26.34,9.83,11.72,18.47,23.93,23.57,38.39,10.33,29.35,16.87,59.64,22.22,90.22,1.31,7.54,2.57,15.1,3.86,22.65a10.88,10.88,0,0,0,4.26-4.54,203,203,0,0,0,22.07-76c2.09-22.6-.1-44.59-10.28-65.11-20.93-42.19-57.64-60-102.33-63.59-16.6-1.31-33.56.18-50.22,1.87C536.9,136.72,514.49,144.64,491.13,153.43ZM239,393.14l.63.85a32.85,32.85,0,0,0,3.92-2.36q11-8.82,21.87-17.77c26.78-22.09,53.78-43.92,80.23-66.4,21.08-17.91,41.42-36.68,62.24-54.89,5.55-4.86,11.29-9.72,17.61-13.43,8.46-5,14.92-2.47,19.53,6.27,6.19,11.73,8.84,24.54,11.08,37.42,1.65,9.53,2.89,19.15,3.85,28.78.8,8,.92,16,1.37,24.52-1.66-.72-2.55-1.09-3.42-1.5-12.9-6.18-26.21-11.31-40.57-12.41-19.18-1.46-36.91,2.11-53.24,13.68-28.25,20-57.29,38.88-86,58.26-3.17,2.15-6.2,4.5-9.29,6.76l.65,1.17c1.56-.66,3.17-1.22,4.68-2,19-9.63,38.11-19.16,57.05-29,13.23-6.85,26.08-14.46,39.44-21,7.68-3.78,15.83-7.77,24.13-8.88,16.86-2.26,32.94,2.18,47.69,10.61,8.24,4.71,16,10.28,24.17,15.1,9.31,5.49,18.19.22,18.32-10.47a496.09,496.09,0,0,0-3.91-68.36c-2-16-5.34-31.6-11.5-46.48-4-9.71-9.7-18.37-19.23-23.76-12-6.79-29.87-4.85-41.92,5.62-11.51,10-22.54,20.61-33.33,31.41q-62,62.08-123.59,124.49C247.13,383.77,243.16,388.54,239,393.14Zm83.84,133.4-.42,1.19a6.76,6.76,0,0,0,1.39,1.2c3.78,1.69,7.52,3.47,11.38,5,30.36,11.75,61.76,12,93.36,7.57,28.58-4,55.81-12.88,82.06-24.73,7.3-3.29,14.4-7,21.59-10.55-16.39-1-32.34-1.08-48.29-1-1.72,0-3.46.91-5.12,1.57-14.18,5.57-28,12.16-42.57,16.57-31.85,9.69-64.4,12.95-97.46,6.75C333.43,529.11,328.15,527.74,322.85,526.54Zm331.89-139.1c-22.54,1.51-46.09,3.72-69.68,4.5-23.82.79-47.68.17-72.26.17C543.74,404.51,635.37,400.87,654.74,387.44ZM653,371.85c-46.37,5.8-93,6.27-139.6,5.17C560.35,387.92,606.92,387.19,653,371.85Zm3.18,31c-46.43,5.72-93.08,6.25-139.8,5.08C563.45,418.33,610.13,418.44,656.16,402.89Zm-138.77,32c-4.69-5.84-11.75-6.43-16.51-2-5.47,5.07-5.81,12.84-.77,17.58,4.48,4.23,12.57,3.66,17.07-1.88-5.13,1.88-9.92,2.53-12-2.8a11.53,11.53,0,0,1,.35-8.7C507.88,432.8,512.38,433.31,517.39,434.88Zm121.84,13.58c2.39,3.35,5.94,4.45,10.2,3.15,4.64-1.42,9.69-7.34,9.28-11.75s-2.44-9.32-7.15-10.22c-4.47-.86-8.95-1.64-12.81,2.9,8.75,0,12.31,2.36,12.4,7.81C651.24,446.11,647.83,448.43,639.23,448.46ZM562.7,504.52l-.24-.15,0,.21Z"/><path class="cls-2" d="M239.84,370.17a122.06,122.06,0,0,0-8.8,40.12,270.67,270.67,0,0,0,.08,30.68c1,12.93,3.33,25.71,9.9,37.25q1,2.49,2.06,5l1,.79-.1,0c3.61,6.13,6.72,12.63,10.92,18.33,21.55,29.23,52.28,42.72,86.64,49.79A213.55,213.55,0,0,0,396,555.76c37.18-2,73-10.33,107.55-24.07,15.07-6,29.66-13.21,44.47-19.87v3c-20.09,10.95-39.67,23-60.39,32.61-31.87,14.75-65.25,25.55-100.2,30.46-16.21,2.28-32.6,4.77-48.9,4.75-41.95-.06-82.6-6.76-117.28-32.69-27.54-20.6-45-48.33-51-82.28-6.37-35.84,1-70.3,13.56-103.8,12.72-33.81,31.35-64.09,54.48-91.86,36.92-44.3,80.21-81.06,130.21-109.48,43.12-24.51,89-42.64,137.87-52.35a297,297,0,0,1,78.75-5C611.81,107,637.6,113,661.51,125.6a34.06,34.06,0,0,1,4.11,3l-.69,1c-7.33-2-14.54-4.74-22-6-12-2.06-24.15-4-36.29-4.51a289.19,289.19,0,0,0-42.25,1.06c-27.09,2.91-53.43,9.52-79.13,18.71C447,152.54,411.12,170.59,378,194.05A445.2,445.2,0,0,0,305.77,258a318.9,318.9,0,0,0-57.56,88.52,27.67,27.67,0,0,0-1.13,4.67l0-.15c-.32.7-.65,1.4-1,2.11q-2.57,6.9-5.14,13.82Z"/><path class="cls-3" d="M243.08,483.2q-1-2.49-2.06-5h16.21c1.12-7.81,1.73-14.19,3-20.42,1.42-6.9,7.11-11.72,12.87-11.69a14.09,14.09,0,0,1,13.7,12c1,5.79,1.12,11.76,1.61,17.51l60.26-1.81V447.36l.77-.08c1.9,8.48,3.79,17,5.73,25.62h4.6a4.15,4.15,0,0,0,.17-1.41c-3.93-13.28-4.56-26.57.27-39.75a24.92,24.92,0,0,1,4.41-7.55c5.33-6.15,14-4.77,18.84,3.34,4.4,7.35,7.3,15.39,7.45,24.13.11,6.65,0,13.3,0,20.24h6.17c0-8.48.91-17.16-.25-25.55a104.57,104.57,0,0,0-6.93-25.85c-3.66-8.82-8.32-13.43-17.72-12.61-5.75.51-10.05,3.68-13.4,8.19-2,2.7-3.83,5.52-6.37,9.2,1-10.42,9.37-20.25,18.12-22.2,12.21-2.72,21.06,2,28.54,15.55,6.34,11.53,8.48,24.31,10.78,37,1,5.3,1.4,10.7,2.14,16.56l41.89-1.82c1,0,2-.16,3-.19q25.17-.56,50.36-1.09,25.43-.54,50.86-1,23.45-.48,46.87-1c16-.34,32-.18,47.87-1.14s20.7-7,23.23-23.35c2.81-18.15-.21-36.25-1.84-54.33-1-11-2.11-21.94-3.15-32.68-10.18,0-20.09.06-30,0-12.8-.1-25.59-.32-38.39-.5-1.66,0-3.32-.15-5-.19-19-.37-37.91-.58-56.86-1.14-14.07-.42-28.14-1.23-42.21-2a40.41,40.41,0,0,1-5.71-1c-.92-17.35-1.74-34.21-2.75-51.05-.5-8.4-1.38-16.78-2-25.17a16.49,16.49,0,0,1,.67-5.47c7.8,23.82,10.48,48.48,12.41,73.46a3.21,3.21,0,0,0,1.15.43c14.95.38,29.91.62,44.85,1.13,16.08.54,32.15,1.26,48.22,2.05,10.24.5,20.48,1.08,30.69,2,13,1.12,25.9,2.6,38.86,3.86,1.94.19,3.91,0,6.26,0-2.77-16.61-5.15-32.81-8.23-48.87-3.36-17.63-7.29-35.15-11.17-52.67-.62-2.81-2.42-5.34-3.41-8.1-1.08-3-3.33-4.06-6.22-4.55q-23.5-3.91-47-7.93c-17.27-3-34.54-5.92-51.76-9.11-20.26-3.75-40.46-7.77-60.7-11.63a47.26,47.26,0,0,0-5.15-.35c2.21,9.21,3.94,17.87,6.59,26.24.5,1.59,4.58,2.49,7.13,2.9,19.24,3.13,38.51,6.07,57.78,9.06,15.22,2.37,30.46,4.66,45.68,7.1,5.38.86,10.71,2,16.06,3.08l-.2,1.51c-1.4-.24-2.8-.56-4.21-.7-7.54-.75-15.1-1.35-22.63-2.19-10.45-1.17-20.88-2.56-31.33-3.77-9.64-1.12-19.31-2-28.94-3.22-10.74-1.35-21.46-2.93-32.18-4.43-.48-.07-.92-.41-1.4-.49-3.57-.54-8.38.16-10.39-1.89-2.41-2.45-2.47-7.24-3.48-11-1.51-5.67-2.93-11.37-4.44-17.05-1.45-5.44-3-10.86-4.69-17.18L644.7,234.91l.51-1.13c-3.88-1.63-7.63-3.81-11.66-4.81-18.23-4.49-36.63-8.32-54.81-13-27.47-7.1-54.8-14.71-82.19-22.12-1.49-.4-2.95-.92-4.42-1.39l.23-1.26c3.42.33,6.86.49,10.25,1,19.13,2.92,38.27,5.72,57.34,9,17.25,2.95,34.39,6.61,51.63,9.65,9.72,1.71,19.56,2.77,29.33,4.19,11,1.6,18.56,8.35,22.8,17.85a222.45,222.45,0,0,1,12.88,35.79c5.5,21.68,10,43.63,14.3,65.58,2.82,14.29,4.86,28.75,6.87,43.19,1.14,8.16,1.65,16.42,2.18,24.65.5,7.61,1.07,15.25.86,22.85-.35,12.63.1,25.5-5,37.44a76,76,0,0,1-8.7,14.7c-3.6,4.94-8.67,6.87-15.11,6.86q-211.28-.23-422.55-.1c-1.83,0-3.65.07-5.48.12l.1,0Zm31.2-26.74-2,0c-1.1,6-2.2,12.07-3.36,18.48h8.44C277.51,468.32,278.74,461.88,274.28,456.46Z"/><path class="cls-4" d="M491.13,153.43c23.36-8.79,45.77-16.71,69.49-19.11,16.66-1.69,33.62-3.18,50.22-1.87,44.69,3.55,81.4,21.4,102.33,63.59,10.18,20.52,12.37,42.51,10.28,65.11a203,203,0,0,1-22.07,76,10.88,10.88,0,0,1-4.26,4.54c-1.29-7.55-2.55-15.11-3.86-22.65-5.35-30.58-11.89-60.87-22.22-90.22-5.1-14.46-13.74-26.67-23.57-38.39-10.66-12.72-24.23-20.68-39.25-26.34-25.3-9.53-51.36-10.75-78.06-6.85-8.43,1.23-17.38-.91-26.08-1.72C500.12,155.12,496.21,154.25,491.13,153.43Z"/><path class="cls-5" d="M239,393.14c4.15-4.6,8.12-9.37,12.48-13.76q61.71-62.33,123.59-124.49c10.79-10.8,21.82-21.41,33.33-31.41,12-10.47,29.91-12.41,41.92-5.62,9.53,5.39,15.2,14,19.23,23.76,6.16,14.88,9.47,30.48,11.5,46.48A496.09,496.09,0,0,1,485,356.46c-.13,10.69-9,16-18.32,10.47-8.18-4.82-15.93-10.39-24.17-15.1-14.75-8.43-30.83-12.87-47.69-10.61-8.3,1.11-16.45,5.1-24.13,8.88-13.36,6.58-26.21,14.19-39.44,21-18.94,9.81-38,19.34-57.05,29-1.51.76-3.12,1.32-4.68,2l-.65-1.17c3.09-2.26,6.12-4.61,9.29-6.76,28.69-19.38,57.73-38.25,86-58.26,16.33-11.57,34.06-15.14,53.24-13.68,14.36,1.1,27.67,6.23,40.57,12.41.87.41,1.76.78,3.42,1.5-.45-8.53-.57-16.56-1.37-24.52-1-9.63-2.2-19.25-3.85-28.78-2.24-12.88-4.89-25.69-11.08-37.42-4.61-8.74-11.07-11.23-19.53-6.27-6.32,3.71-12.06,8.57-17.61,13.43-20.82,18.21-41.16,37-62.24,54.89-26.45,22.48-53.45,44.31-80.23,66.4q-10.87,9-21.87,17.77a32.85,32.85,0,0,1-3.92,2.36Z"/><path class="cls-6" d="M322.85,526.54c5.3,1.2,10.58,2.57,15.92,3.57,33.06,6.2,65.61,2.94,97.46-6.75,14.53-4.41,28.39-11,42.57-16.57,1.66-.66,3.4-1.56,5.12-1.57,15.95-.12,31.9-.07,48.29,1-7.19,3.53-14.29,7.26-21.59,10.55-26.25,11.85-53.48,20.77-82.06,24.73-31.6,4.39-63,4.18-93.36-7.57-3.86-1.49-7.6-3.27-11.38-5a6.76,6.76,0,0,1-1.39-1.2Z"/><path class="cls-7" d="M344,270.65,342.05,272l-1,1-1,1-1,1,0,0-1,.91-.07.05-.93.73L333,280l-1,.94,0,0-1,.73-4,3.3-1,1,0,0-1,.92-.06.05-.93.73L319,292l-3-2,.27-1,1.78-1.78,1.3-1.2.74-.88.1-.1.9-.92.07-.09c.31-.31.61-.63.91-1l0-.06.93-1,0-.05.95-1,0,0,1-1v0c.33-.33.66-.66,1-1h0l1-1,6.34-7,.73-.89.09-.09.9-.94.06-.08.92-1,0-.05.95-1,0,0,1-1,0,0,1-1h0l1-1h0l1-1h0l1-1h0l1-1,10.33-11c.25-.29.49-.59.74-.89l.09-.08.91-.92.08-.09.91-.93.07-.08.92-.94.06-.06.94-.95,0-.06c.31-.32.63-.64.94-1l0,0,.95-1,0,0,1-1,0,0,1-1,0,0c.33-.32.65-.65,1-1v0l1-1v0l1-1h0l1-1h0l1-1h0l1-1h0l1-1h0l1-1h0l1-1h0l1-1h0l1-1h0l1-1h0l1-1h0l1-1h0l1-1h0l1-1v0l1-1,0,0,1-1,0,0,1-1,0,0,1-1,0,0c.32-.32.65-.64,1-1l0,0,1-1,0,0,1-1,0,0,1-.94,0,0,1-.93.06-.06.95-.92.08-.07.93-.9.09-.09.88-.74,9-8.33,1-1h0l1-1v0l1-1,0,0,1-.93.06,0,1-.9.09-.08.89-.73,6-5.33,1-1,0,0,1-.94.05,0,1-.9.08-.07.91-.73,5-4.33,1-1,0,0,1-.92.07-.05.93-.73,2.95-2.33,1-1h0c.34-.32.68-.64,1-1h0l1-.93,0,0,1-.74,2.94-2.31,1.05-.74,2.92,0,2,.76,3,.23,2,.76,3,.25,2,.77,2.06.22,2,.75,3,.28,1,.71,3,.29,1,.71,3,.29,1,.71,3,.29,1,.71,2,.24c-.53.58-1,1.63-1.59,1.65-3.76.14-7.53.06-11.3,0l-10.05-.23-6-.76H436l-1,.93,0,0-1,1,0,0-1,1v0l-1,1h0l-1,1h0l-1,1-9.34,9.95-.74.88-.1.1-.9.91-.08.09c-.3.31-.6.63-.91.94l-.07.07-.92.94-.07.06-.93.94-.06.07-.94.94-.06.06-.94.94-.05.06-.94,1-.06,0-.94,1-.05,0-.95,1-.05,0-.95,1-.05,0-.95.94-.06,0c-.31.32-.63.63-.95.94l-.05.06-.95.94-.06.06-.94.93-.07.07-.93.93-.07.07-.94.91-.08.08-.93.9-.09.09-.91.9-.09.1c-.3.24-.59.49-.88.74L391,228l-1,1h0l-1,1h0l-1,1h0l-1,1,0,0-1,1,0,0-1,.94-.06,0-1,.9-.09.07-.9.73L377,241l-1,1h0l-1,1,0,0-1,.94-.05,0-1,.91-.08.07-.91.73L365,252l-1,1h0l-1,1h0l-1,1,0,0-1,.94-.05,0-1,.9-.09.07c-.29.25-.59.49-.89.73L355,261l-1,1v0c-.34.31-.68.62-1,.94l0,0-1,.9-.09.06-.9.73L347,268l-1,1,0,0-1,.92-.06,0Z"/><path class="cls-8" d="M654.74,387.44c-19.37,13.43-111,17.07-141.94,4.67,24.58,0,48.44.62,72.26-.17C608.65,391.16,632.2,389,654.74,387.44Z"/><path class="cls-8" d="M653,371.85c-46.06,15.34-92.63,16.07-139.6,5.17C560,378.12,606.61,377.65,653,371.85Z"/><path class="cls-9" d="M656.16,402.89c-46,15.55-92.71,15.44-139.8,5.08C563.08,409.14,609.73,408.61,656.16,402.89Z"/><path class="cls-10" d="M241,366.93q2.58-6.92,5.14-13.82c.32-.71.65-1.41,1-2.11l0,.15a40.38,40.38,0,0,0,4.76-3.37c4.47-4.19,8.82-8.52,13.21-12.79l1-1,0,0,1-.91.07-.06.93-.73,3-2.33,1-1v0l1-.91.07,0,.93-.73,3-2.33,1-1,0,0,1-.9.08-.06.92-.73,3-2.33,1-1h0l1-.92.05-.05.95-.73,4-3.31,1-1,0,0,1-.91.07-.06.92-.72L294,311l2,3-3.34,3.94-.74.9-.07.09-.91,1-.05.06-.93,1,0,0-1,1h0l-1,1h0l-1,1h0l-1,1-3.33,3.95-.74.91-.07.08-.9,1,0,0-.94,1v0l-1,1h0l-1,1-3.32,4-.74.93-.05.06-.92,1,0,0-1,1v0l-1,1h0l-1,1h0l-1,1h0l-1,1h0l-1,1h0l-1,1h0l-1,1h0l-1,1h0l-1,1h0l-1,1v0l-1,1,0,0-1,1,0,0-1,.94,0,0-1,.93-.06.06-1,.91-.08.07-.9.74L248,364l-1,1h0l-1,1,0,0-1,1,0,0-1,.95,0,0-1,.94,0,0C242.3,368.25,241.66,367.59,241,366.93Z"/><path class="cls-11" d="M517.39,434.88c-5-1.57-9.51-2.08-11.86,2.19a11.53,11.53,0,0,0-.35,8.7c2.08,5.33,6.87,4.68,12,2.8-4.5,5.54-12.59,6.11-17.07,1.88-5-4.74-4.7-12.51.77-17.58C505.64,428.45,512.7,429,517.39,434.88Z"/><path class="cls-12" d="M639.23,448.46c8.6,0,12-2.35,11.92-8.11-.09-5.45-3.65-7.82-12.4-7.81,3.86-4.54,8.34-3.76,12.81-2.9,4.71.9,6.75,6,7.15,10.22s-4.64,10.33-9.28,11.75C645.17,452.91,641.62,451.81,639.23,448.46Z"/><path class="cls-13" d="M296,314l-2-3q9.23-8.58,18.45-17.16l1.62.93.27-.53-1.62-.74L316,290l3,2Zm7.64-10.61c0,.12,0,.31.09.36a1,1,0,0,0,.43.08l-.12-.61Z"/><path class="cls-14" d="M548,514.82v-3l12.32-7.18,1,1.55Z"/><path class="cls-13" d="M458.13,183.92c3.77,0,7.54.09,11.3,0,.55,0,1.06-1.07,1.59-1.65l3.47.95C469,185.1,463.58,185.75,458.13,183.92Z"/><path class="cls-13" d="M241,366.93c.64.66,1.28,1.32,1.91,2l-3.09,1.25Z"/><path class="cls-13" d="M442.11,182.93l6,.76Z"/><path class="cls-13" d="M318.08,287.23,316.3,289Z"/><path class="cls-13" d="M439,175l-2-.76Z"/><path class="cls-13" d="M444,176l-2-.76Z"/><path class="cls-13" d="M449,177l-2-.77Z"/><path class="cls-13" d="M453,178l-2-.75Z"/><path class="cls-13" d="M414.12,191.11l-1,.9Z"/><path class="cls-13" d="M413.09,192.05l-1,.94Z"/><path class="cls-13" d="M412.07,193l-1,1Z"/><path class="cls-13" d="M405.1,199.31l-.89.73Z"/><path class="cls-13" d="M420,199.79l.74-.88Z"/><path class="cls-13" d="M404.12,200.12l-1,.9Z"/><path class="cls-13" d="M419,200.8l.9-.91Z"/><path class="cls-13" d="M403.1,201.07l-1,.93Z"/><path class="cls-13" d="M418,201.83c.31-.31.61-.63.91-.94C418.59,201.2,418.29,201.52,418,201.83Z"/><path class="cls-13" d="M402.08,202l-1,1Z"/><path class="cls-13" d="M417,202.84l.92-.94Z"/><path class="cls-13" d="M401.07,203l-1,1Z"/><path class="cls-13" d="M416,203.84l.93-.94Z"/><path class="cls-13" d="M400.06,204l-1,1Z"/><path class="cls-13" d="M415,204.85l.94-.94Z"/><path class="cls-13" d="M414,205.85l.94-.94Z"/><path class="cls-13" d="M413,206.86l.94-1Z"/><path class="cls-13" d="M412,207.87l.94-1Z"/><path class="cls-13" d="M411,208.87l.95-1Z"/><path class="cls-13" d="M410,209.87l.95-1Z"/><path class="cls-13" d="M409,210.86l.95-.94Z"/><path class="cls-13" d="M408,211.85c.32-.31.64-.62.95-.94C408.63,211.23,408.31,211.54,408,211.85Z"/><path class="cls-13" d="M415.11,190.31l-.91.73Z"/><path class="cls-13" d="M407,212.85l.95-.94Z"/><path class="cls-13" d="M390.1,213.31l-.88.74Z"/><path class="cls-13" d="M406,213.84l.94-.93Z"/><path class="cls-13" d="M389.13,214.14l-.93.9Z"/><path class="cls-13" d="M405,214.84l.93-.93Z"/><path class="cls-13" d="M430.05,189l1-1Z"/><path class="cls-13" d="M388.12,215.11l-.95.92Z"/><path class="cls-13" d="M404,215.82l.94-.91Z"/><path class="cls-13" d="M387.11,216.09l-1,.93Z"/><path class="cls-13" d="M403,216.8l.93-.9Z"/><path class="cls-13" d="M386.1,217.07l-1,.94Z"/><path class="cls-13" d="M402,217.79l.91-.9Z"/><path class="cls-13" d="M385.09,218.05l-1,1Z"/><path class="cls-13" d="M401,218.63c.29-.25.58-.5.88-.74C401.58,218.13,401.29,218.38,401,218.63Z"/><path class="cls-13" d="M384.09,219l-1,1Z"/><path class="cls-13" d="M383.08,220c-.32.33-.65.65-1,1C382.43,220.68,382.76,220.36,383.08,220Z"/><path class="cls-13" d="M382.08,221l-1,1Z"/><path class="cls-13" d="M381.07,222l-1,1Z"/><path class="cls-13" d="M380.07,223l-1,1Z"/><path class="cls-13" d="M379.07,224l-1,1Z"/><path class="cls-13" d="M378.07,225l-1,1Z"/><path class="cls-13" d="M377.07,226l-1,1Z"/><path class="cls-13" d="M376.07,227l-1,1Z"/><path class="cls-13" d="M375.07,228l-1,1Z"/><path class="cls-13" d="M390,229l1-1Z"/><path class="cls-13" d="M374.07,229l-1,1Z"/><path class="cls-13" d="M389,230l1-1Z"/><path class="cls-13" d="M373.06,230l-1,1Z"/><path class="cls-13" d="M388,230.94l1-1Z"/><path class="cls-13" d="M372.06,231l-1,1Z"/><path class="cls-13" d="M387,231.93l1-1Z"/><path class="cls-13" d="M371.06,232l-1,1Z"/><path class="cls-13" d="M386,232.9l1-1Z"/><path class="cls-13" d="M370.06,233l-1,1Z"/><path class="cls-13" d="M385,233.87l1-.94Z"/><path class="cls-13" d="M369.06,234l-1,1Z"/><path class="cls-13" d="M384,234.82l1-.9Z"/><path class="cls-13" d="M368.06,235l-1,1Z"/><path class="cls-13" d="M383,235.62l.9-.73Z"/><path class="cls-13" d="M367.06,236l-1,1Z"/><path class="cls-13" d="M366.06,237l-1,1Z"/><path class="cls-13" d="M365.06,238l-1,1Z"/><path class="cls-13" d="M364.07,239l-1,1Z"/><path class="cls-13" d="M363.07,240c-.33.33-.65.66-1,1C362.42,240.67,362.74,240.34,363.07,240Z"/><path class="cls-13" d="M362.07,241l-1,1Z"/><path class="cls-13" d="M376,242l1-1Z"/><path class="cls-13" d="M361.08,242l-1,1Z"/><path class="cls-13" d="M375,242.92l1-1Z"/><path class="cls-13" d="M360.08,243l-.95,1Z"/><path class="cls-13" d="M374,243.88l1-.94Z"/><path class="cls-13" d="M359.09,244.05c-.31.33-.63.65-.94,1C358.46,244.7,358.78,244.38,359.09,244.05Z"/><path class="cls-13" d="M373,244.83l1-.91Z"/><path class="cls-13" d="M358.1,245.08l-.94.95Z"/><path class="cls-13" d="M372,245.63l.91-.73Z"/><path class="cls-13" d="M357.1,246.09l-.92.94Z"/><path class="cls-13" d="M356.11,247.11l-.91.93Z"/><path class="cls-13" d="M355.12,248.13l-.91.92Z"/><path class="cls-13" d="M354.12,249.13c-.25.3-.49.6-.74.89C353.63,249.73,353.87,249.43,354.12,249.13Z"/><path class="cls-13" d="M434.1,174.23l-1.05.74Z"/><path class="cls-13" d="M363,254l1-1Z"/><path class="cls-13" d="M362,254.92l1-1Z"/><path class="cls-13" d="M361,255.88l1-.94Z"/><path class="cls-13" d="M360,256.82l1-.9Z"/><path class="cls-13" d="M359,257.62c.3-.24.6-.48.89-.73C359.59,257.14,359.29,257.38,359,257.62Z"/><path class="cls-13" d="M343.05,261l-1,1Z"/><path class="cls-13" d="M354,261.94l1-1Z"/><path class="cls-13" d="M342.05,262l-1,1Z"/><path class="cls-13" d="M353,262.9c.33-.32.67-.63,1-.94C353.68,262.27,353.34,262.58,353,262.9Z"/><path class="cls-13" d="M341.05,263l-1,1Z"/><path class="cls-13" d="M352,263.83l1-.9Z"/><path class="cls-13" d="M340.05,264l-1,1Z"/><path class="cls-13" d="M351,264.62l.9-.73Z"/><path class="cls-13" d="M339.06,265l-1,1Z"/><path class="cls-13" d="M338.06,266l-1,1Z"/><path class="cls-13" d="M337.08,267l-.95,1Z"/><path class="cls-13" d="M336.09,268.07l-.92,1Z"/><path class="cls-13" d="M346,268.92l1-1Z"/><path class="cls-13" d="M335.11,269.11l-.9.94Z"/><path class="cls-13" d="M345,269.87l1-.92Z"/><path class="cls-13" d="M334.12,270.14l-.73.89Z"/><path class="cls-13" d="M344,270.65l.94-.74Z"/><path class="cls-13" d="M341,273l1-1Z"/><path class="cls-13" d="M339,274.93l1-1Z"/><path class="cls-13" d="M338,275.86l1-.91Z"/><path class="cls-13" d="M337,276.64l.93-.73Z"/><path class="cls-13" d="M327.05,278l-1,1Z"/><path class="cls-13" d="M326.05,279c-.32.34-.65.67-1,1C325.4,279.66,325.73,279.33,326.05,279Z"/><path class="cls-13" d="M325.06,280l-1,1Z"/><path class="cls-13" d="M332,280.9l1-.94Z"/><path class="cls-13" d="M324.07,281l-.95,1Z"/><path class="cls-13" d="M331,281.66l1-.73Z"/><path class="cls-13" d="M323.08,282.06l-.93,1Z"/><path class="cls-13" d="M322.1,283.09c-.3.32-.6.64-.91,1C321.5,283.73,321.8,283.41,322.1,283.09Z"/><path class="cls-13" d="M321.12,284.13l-.9.92Z"/><path class="cls-13" d="M320.12,285.15l-.74.88Z"/><path class="cls-13" d="M326,285.92l1-1Z"/><path class="cls-13" d="M325,286.86l1-.92Z"/><path class="cls-13" d="M431.05,188l1-1Z"/><path class="cls-13" d="M324,287.64l.93-.73Z"/><path class="cls-13" d="M432,187l1-1Z"/><path class="cls-13" d="M433,185.93l1-1Z"/><path class="cls-13" d="M421.08,185l-1,1Z"/><path class="cls-13" d="M293.09,311.32l-.92.72Z"/><path class="cls-13" d="M434,184.91l1-1Z"/><path class="cls-13" d="M292.1,312.1l-1,.91Z"/><path class="cls-13" d="M291.06,313l-1,1Z"/><path class="cls-13" d="M286.09,317.3l-.95.73Z"/><path class="cls-13" d="M285.09,318.08l-1,.92Z"/><path class="cls-13" d="M292,318.82l.74-.9Z"/><path class="cls-13" d="M284.06,319l-1,1Z"/><path class="cls-13" d="M291,319.87l.91-1Z"/><path class="cls-13" d="M290,320.92l.93-1Z"/><path class="cls-13" d="M289,322l1-1Z"/><path class="cls-13" d="M280.09,322.31l-.92.73Z"/><path class="cls-13" d="M288,323l1-1Z"/><path class="cls-13" d="M279.09,323.1l-1,.9Z"/><path class="cls-13" d="M287,324l1-1Z"/><path class="cls-13" d="M278.06,324l-1,1Z"/><path class="cls-13" d="M286,325l1-1Z"/><path class="cls-13" d="M274.09,327.31l-.93.73Z"/><path class="cls-13" d="M273.09,328.09l-1,.91Z"/><path class="cls-13" d="M272.06,329l-1,1Z"/><path class="cls-13" d="M282,329.83l.74-.91Z"/><path class="cls-13" d="M281,330.89l.9-1Z"/><path class="cls-13" d="M280,331.94l.94-1Z"/><path class="cls-13" d="M268.09,332.31l-.93.73Z"/><path class="cls-13" d="M279,333l1-1Z"/><path class="cls-13" d="M267.09,333.1l-1,.91Z"/><path class="cls-13" d="M278,334l1-1Z"/><path class="cls-13" d="M266.06,334l-1,1Z"/><path class="cls-13" d="M274,338.86l.74-.93Z"/><path class="cls-13" d="M273,339.91l.92-1Z"/><path class="cls-13" d="M272,340.94l1-1Z"/><path class="cls-13" d="M271,342l1-1Z"/><path class="cls-13" d="M270,343l1-1Z"/><path class="cls-13" d="M269,344l1-1Z"/><path class="cls-13" d="M268,345l1-1Z"/><path class="cls-13" d="M267,346l1-1Z"/><path class="cls-13" d="M266,347l1-1Z"/><path class="cls-13" d="M265,348l1-1Z"/><path class="cls-13" d="M264,349l1-1Z"/><path class="cls-13" d="M263,350l1-1Z"/><path class="cls-13" d="M262,351l1-1Z"/><path class="cls-13" d="M422.11,184.08l-1,.92Z"/><path class="cls-13" d="M261,351.94l1-1Z"/><path class="cls-13" d="M260,352.92l1-1Z"/><path class="cls-13" d="M259,353.89l1-.94Z"/><path class="cls-13" d="M258,354.86l1-.93Z"/><path class="cls-13" d="M257,355.83l1-.91Z"/><path class="cls-13" d="M256,356.64l.9-.74Z"/><path class="cls-13" d="M247,365l1-1Z"/><path class="cls-13" d="M246,365.94l1-1Z"/><path class="cls-13" d="M245,366.92l1-1Z"/><path class="cls-13" d="M435,183.87l1-.93Z"/><path class="cls-13" d="M244,367.9l1-.95Z"/><path class="cls-13" d="M243,368.88l1-.94Z"/><path class="cls-13" d="M423.11,183.3l-.93.73Z"/><path class="cls-13" d="M469,182l-1-.71Z"/><path class="cls-13" d="M465,181l-1-.71Z"/><path class="cls-13" d="M427.06,180l-1,1Z"/><path class="cls-13" d="M461,180l-1-.71Z"/><path class="cls-13" d="M428.07,179l-1,1Z"/><path class="cls-13" d="M457,179l-1-.71Z"/><polygon class="cls-14" points="562.7 504.52 562.42 504.58 562.46 504.37 562.7 504.52"/><path class="cls-13" d="M429.1,178.06l-1,.93Z"/><path class="cls-13" d="M430.11,177.28l-1,.74Z"/><path class="cls-13" d="M364,253l1-1Z"/><path class="cls-1" d="M247.13,351c-.32.7-.65,1.4-1,2.11C246.48,352.4,246.81,351.7,247.13,351Z"/><path class="cls-1" d="M243.08,483.2l1,.79Z"/><path class="cls-15" d="M274.28,456.46c4.46,5.42,3.23,11.86,3.11,18.43H269c1.16-6.41,2.26-12.45,3.36-18.48Z"/><path class="cls-10" d="M303.68,303.37l.4-.17.12.61a1,1,0,0,1-.43-.08C303.69,303.68,303.71,303.49,303.68,303.37Z"/><path class="cls-7" d="M312.75,293.47l1.62.74-.27.53-1.62-.93Z"/></g></g></svg>