<svg width="211" height="161" viewBox="0 0 211 161" fill="none" xmlns="http://www.w3.org/2000/svg">
<path d="M89 64.1158C103.329 62.9637 124.795 70.0115 119.173 103.353C113.552 136.695 138.049 139.881 151 137.305" stroke="#18A0FB" stroke-width="4" stroke-linecap="round" stroke-dasharray="8 8"/>
<path d="M32 70.4211C32 73.3389 33.2919 75.9584 35.3125 77.7821V82.0263C35.3125 84.7784 37.5319 87 40.2812 87C43.0306 87 45.25 84.7784 45.25 82.0263V80.3684H71.75V82.0263C71.75 84.7453 73.9694 87 76.7188 87C79.435 87 81.6875 84.7784 81.6875 82.0263V77.7821C83.7081 75.9584 85 73.3389 85 70.4211V37.2632C85 25.6579 73.1413 24 58.5 24C43.8587 24 32 25.6579 32 37.2632V70.4211ZM43.5938 73.7368C40.8444 73.7368 38.625 71.5153 38.625 68.7632C38.625 66.0111 40.8444 63.7895 43.5938 63.7895C46.3431 63.7895 48.5625 66.0111 48.5625 68.7632C48.5625 71.5153 46.3431 73.7368 43.5938 73.7368ZM73.4062 73.7368C70.6569 73.7368 68.4375 71.5153 68.4375 68.7632C68.4375 66.0111 70.6569 63.7895 73.4062 63.7895C76.1556 63.7895 78.375 66.0111 78.375 68.7632C78.375 71.5153 76.1556 73.7368 73.4062 73.7368ZM78.375 53.8421H38.625V37.2632H78.375V53.8421Z" fill="#18A0FB"/>
<path d="M163.75 96.25C159.9 96.25 156.75 93.1 156.75 89.25C156.75 85.4 159.9 82.25 163.75 82.25C167.6 82.25 170.75 85.4 170.75 89.25C170.75 93.1 167.6 96.25 163.75 96.25ZM176.7 108.15L185.66 153.335C186.115 155.47 184.435 157.5 182.23 157.5H181.95C180.305 157.5 178.905 156.38 178.52 154.77L172.85 129.5L165.5 136.5V154C165.5 155.925 163.925 157.5 162 157.5C160.075 157.5 158.5 155.925 158.5 154V134.26C158.5 132.335 159.27 130.515 160.67 129.185L165.85 124.25L163.75 113.75C159.806 118.259 154.406 121.244 148.49 122.185C146.39 122.5 144.5 120.82 144.5 118.685C144.5 116.97 145.76 115.535 147.475 115.255C152.795 114.38 157.205 111.23 159.55 107.1L163.05 101.5C163.995 99.9886 165.447 98.8628 167.147 98.3241C168.846 97.7855 170.682 97.8691 172.325 98.56L185.73 104.23C186.998 104.772 188.079 105.675 188.838 106.826C189.597 107.977 190.001 109.326 190 110.705V119C190 120.925 188.425 122.5 186.5 122.5C184.575 122.5 183 120.925 183 119V110.6L176.7 108.15Z" fill="#18A0FB"/>
</svg>
